<svg id="svg" version="1.1" width="400" height="400" viewBox="0 0 400 400" xmlns="http://www.w3.org/2000/svg" xmlns:xlink="http://www.w3.org/1999/xlink" ><g id="svgg"><path id="path0" d="M0.000 200.000 L 0.000 400.000 200.000 400.000 L 400.000 400.000 400.000 200.000 L 400.000 0.000 200.000 0.000 L 0.000 0.000 0.000 200.000 M195.000 17.964 C 199.180 18.171,204.400 18.626,206.600 18.975 C 208.800 19.325,211.860 19.793,213.400 20.015 C 216.897 20.520,224.439 22.128,228.400 23.214 C 230.050 23.666,232.330 24.278,233.468 24.574 C 234.605 24.870,235.775 25.266,236.068 25.454 C 236.360 25.641,237.320 26.003,238.200 26.259 C 240.601 26.955,243.277 27.944,244.400 28.551 C 244.950 28.848,245.921 29.216,246.558 29.368 C 249.259 30.013,264.212 37.428,268.400 40.200 C 269.390 40.855,270.695 41.609,271.300 41.876 C 271.905 42.143,272.400 42.550,272.400 42.781 C 272.400 43.011,272.646 43.200,272.948 43.200 C 273.249 43.200,274.400 43.920,275.505 44.800 C 276.610 45.680,277.703 46.400,277.933 46.400 C 278.163 46.400,278.947 46.957,279.675 47.637 C 280.404 48.318,281.682 49.314,282.515 49.852 C 283.348 50.389,284.698 51.408,285.515 52.116 C 286.332 52.824,287.810 54.032,288.800 54.799 C 293.115 58.144,306.884 72.020,308.172 74.321 C 308.380 74.693,308.983 75.447,309.512 75.998 C 310.042 76.549,311.493 78.350,312.737 80.000 C 313.982 81.650,315.315 83.349,315.700 83.775 C 316.085 84.202,316.400 84.723,316.400 84.934 C 316.400 85.145,316.992 86.056,317.714 86.959 C 319.410 89.076,321.036 91.552,322.076 93.600 C 322.355 94.150,322.757 94.722,322.968 94.871 C 323.179 95.019,323.665 95.739,324.047 96.471 C 325.430 99.114,326.045 100.228,326.989 101.800 C 327.517 102.680,329.143 105.830,330.601 108.800 C 332.060 111.770,333.601 114.866,334.026 115.679 C 334.452 116.493,334.801 117.393,334.802 117.679 C 334.804 117.966,335.088 118.740,335.435 119.400 C 335.782 120.060,336.302 121.230,336.591 122.000 C 336.880 122.770,337.509 124.390,337.990 125.600 C 338.470 126.810,339.041 128.430,339.257 129.200 C 339.474 129.970,339.978 131.500,340.378 132.600 C 341.593 135.944,342.041 137.312,342.604 139.400 C 342.901 140.500,343.628 143.200,344.221 145.400 C 344.813 147.600,345.514 150.671,345.779 152.224 C 346.043 153.777,346.380 155.245,346.529 155.485 C 346.677 155.725,346.969 157.574,347.178 159.594 C 347.387 161.615,347.756 163.506,347.997 163.796 C 348.238 164.087,348.603 166.457,348.808 169.062 C 349.013 171.668,349.361 174.880,349.581 176.200 C 351.043 184.976,351.316 270.456,349.886 271.886 C 348.782 272.989,319.308 272.984,318.089 271.880 C 317.306 271.172,317.290 270.434,317.091 226.080 C 316.895 182.447,316.862 180.852,316.047 176.400 C 315.584 173.870,315.204 171.152,315.203 170.360 C 315.201 169.568,315.020 168.398,314.800 167.760 C 314.581 167.122,314.145 165.250,313.833 163.600 C 313.520 161.950,313.076 159.880,312.845 159.000 C 312.614 158.120,312.142 156.230,311.797 154.800 C 310.157 148.011,307.447 140.131,304.975 134.960 C 304.439 133.838,304.000 132.783,304.000 132.615 C 304.000 132.203,301.681 127.167,300.200 124.363 C 296.555 117.463,291.359 109.337,287.274 104.149 C 285.803 102.282,283.790 99.724,282.800 98.466 C 280.901 96.051,276.323 91.119,274.049 89.037 C 273.306 88.357,271.596 86.766,270.249 85.503 C 268.902 84.240,267.575 83.205,267.300 83.203 C 267.025 83.201,266.800 83.063,266.800 82.895 C 266.800 82.727,265.615 81.692,264.166 80.595 C 262.718 79.498,261.226 78.330,260.853 78.000 C 260.479 77.670,259.459 76.936,258.587 76.368 C 256.846 75.235,254.057 73.392,252.438 72.302 C 251.867 71.918,250.680 71.241,249.800 70.796 C 248.920 70.352,247.480 69.550,246.600 69.015 C 245.720 68.479,244.571 67.847,244.047 67.610 C 243.522 67.373,241.272 66.305,239.047 65.236 C 236.821 64.167,234.550 63.168,234.000 63.015 C 233.450 62.861,231.470 62.131,229.600 61.392 C 227.730 60.653,225.390 59.839,224.400 59.585 C 223.410 59.330,222.420 58.982,222.200 58.811 C 221.980 58.641,220.907 58.371,219.815 58.213 C 218.723 58.055,217.193 57.687,216.415 57.396 C 215.637 57.104,214.024 56.751,212.831 56.610 C 211.638 56.469,210.288 56.150,209.831 55.901 C 209.374 55.651,207.020 55.221,204.600 54.944 C 202.180 54.667,199.390 54.260,198.400 54.038 C 195.448 53.377,171.134 53.501,167.864 54.193 C 166.360 54.512,163.750 54.882,162.064 55.014 C 160.379 55.147,158.370 55.505,157.600 55.810 C 156.830 56.114,155.030 56.549,153.600 56.776 C 152.170 57.003,150.016 57.462,148.813 57.795 C 147.610 58.128,146.226 58.400,145.736 58.400 C 145.247 58.400,144.747 58.562,144.625 58.760 C 144.503 58.958,143.457 59.341,142.301 59.612 C 141.146 59.883,140.018 60.248,139.795 60.423 C 139.572 60.598,138.497 60.966,137.406 61.240 C 136.315 61.515,134.967 61.977,134.411 62.267 C 133.855 62.558,133.164 62.796,132.875 62.798 C 132.587 62.799,131.417 63.229,130.275 63.753 C 123.869 66.694,122.382 67.391,120.200 68.479 C 118.013 69.569,116.419 70.387,114.800 71.249 C 114.470 71.424,112.760 72.430,111.000 73.484 C 109.240 74.538,107.628 75.472,107.418 75.561 C 107.208 75.649,106.848 75.871,106.618 76.055 C 105.140 77.233,103.565 78.377,102.000 79.411 C 101.010 80.065,99.851 80.915,99.425 81.300 C 98.998 81.685,98.503 82.000,98.325 82.000 C 98.146 82.000,97.672 82.315,97.270 82.700 C 95.757 84.152,92.032 87.263,90.348 88.483 C 88.100 90.110,78.167 100.168,76.999 102.000 C 76.508 102.770,75.671 103.850,75.139 104.400 C 73.961 105.619,71.345 108.899,70.035 110.800 C 69.505 111.570,68.823 112.470,68.521 112.800 C 68.218 113.130,67.399 114.300,66.700 115.400 C 66.001 116.500,65.332 117.490,65.214 117.600 C 64.741 118.038,62.801 121.110,61.830 122.958 C 61.265 124.035,60.637 125.115,60.437 125.358 C 59.957 125.939,55.550 134.738,54.205 137.800 C 53.625 139.120,52.981 140.513,52.775 140.895 C 52.569 141.277,52.148 142.267,51.841 143.095 C 49.589 149.166,48.800 151.473,48.798 151.997 C 48.796 152.329,48.544 153.081,48.237 153.669 C 47.931 154.257,47.481 155.666,47.237 156.800 C 46.994 157.934,46.624 159.182,46.415 159.573 C 46.205 159.964,45.837 161.518,45.596 163.027 C 45.355 164.535,45.007 165.956,44.823 166.185 C 44.639 166.413,44.359 167.950,44.200 169.600 C 44.042 171.250,43.662 173.207,43.356 173.949 C 43.050 174.691,42.800 176.401,42.800 177.749 C 42.800 179.097,42.530 181.611,42.200 183.335 C 41.355 187.752,41.355 206.518,42.200 210.935 C 42.530 212.660,42.800 215.203,42.800 216.586 C 42.800 217.970,43.047 219.709,43.348 220.451 C 43.649 221.193,44.013 223.002,44.156 224.471 C 44.299 225.939,44.663 227.739,44.964 228.471 C 45.265 229.202,45.641 230.790,45.800 232.000 C 45.959 233.210,46.229 234.380,46.399 234.600 C 46.569 234.820,46.834 235.630,46.989 236.400 C 47.284 237.861,49.049 243.615,49.629 245.000 C 49.813 245.440,50.545 247.330,51.256 249.200 C 51.968 251.070,52.786 252.955,53.075 253.389 C 53.364 253.823,53.600 254.401,53.600 254.674 C 53.600 255.101,56.583 261.462,57.599 263.200 C 57.792 263.530,58.198 264.340,58.501 265.000 C 59.203 266.526,60.128 268.142,60.448 268.400 C 60.584 268.510,61.242 269.628,61.910 270.885 C 62.578 272.142,64.131 274.600,65.362 276.346 C 66.593 278.093,67.600 279.649,67.600 279.805 C 67.600 279.961,68.281 280.924,69.112 281.944 C 69.944 282.965,71.138 284.565,71.767 285.500 C 72.395 286.435,73.034 287.200,73.187 287.200 C 73.339 287.200,74.075 288.055,74.822 289.100 C 78.341 294.023,85.901 301.730,91.849 306.458 C 93.802 308.010,95.580 309.496,95.800 309.760 C 96.741 310.892,103.985 316.024,108.714 318.910 C 109.876 319.620,111.766 320.814,112.914 321.565 C 115.135 323.019,127.286 329.200,127.922 329.200 C 128.130 329.200,129.718 329.849,131.450 330.642 C 133.183 331.436,135.410 332.321,136.400 332.610 C 137.390 332.898,139.280 333.520,140.600 333.992 C 145.020 335.573,153.631 337.748,158.931 338.622 C 160.872 338.943,162.762 339.363,163.131 339.557 C 163.499 339.750,165.870 340.033,168.400 340.184 C 170.930 340.335,174.170 340.648,175.600 340.879 C 178.881 341.410,192.640 341.399,195.811 340.864 C 197.125 340.643,200.500 340.343,203.312 340.199 C 206.124 340.055,209.004 339.761,209.712 339.546 C 210.420 339.331,212.710 338.896,214.800 338.580 C 220.466 337.724,224.626 336.891,226.635 336.209 C 227.621 335.874,228.771 335.600,229.191 335.600 C 229.610 335.600,232.079 334.948,234.677 334.152 C 237.275 333.355,239.997 332.561,240.727 332.388 C 242.076 332.067,248.813 329.578,251.000 328.592 C 251.660 328.295,253.235 327.590,254.500 327.026 C 259.634 324.736,261.146 323.970,264.364 322.029 C 266.214 320.913,267.857 320.000,268.015 320.000 C 268.173 320.000,268.521 319.736,268.788 319.414 C 269.056 319.092,270.203 318.212,271.339 317.458 C 272.474 316.705,273.852 315.657,274.401 315.130 C 275.676 313.907,280.925 310.400,281.480 310.400 C 281.712 310.400,282.117 310.142,282.379 309.826 C 282.641 309.510,283.428 309.129,284.128 308.980 C 284.827 308.830,285.580 308.569,285.800 308.400 C 287.205 307.321,298.984 304.615,304.200 304.173 C 308.215 303.833,332.613 303.850,342.200 304.200 L 349.400 304.462 354.046 306.805 C 358.327 308.963,364.277 312.682,366.200 314.401 C 366.640 314.794,367.720 315.588,368.600 316.165 C 370.170 317.194,374.646 321.188,378.335 324.852 C 383.207 329.690,385.163 331.969,387.902 336.000 C 388.276 336.550,388.682 337.090,388.805 337.200 C 389.498 337.821,393.209 343.809,394.073 345.700 C 394.349 346.305,394.716 346.800,394.888 346.800 C 395.059 346.800,395.200 346.999,395.200 347.242 C 395.200 347.485,395.641 348.563,396.181 349.637 C 398.433 354.121,396.791 356.928,393.400 354.390 C 393.180 354.226,391.650 353.552,390.000 352.893 C 386.811 351.620,381.347 349.182,379.468 348.195 C 378.845 347.868,378.137 347.600,377.894 347.600 C 377.651 347.600,376.676 347.240,375.726 346.800 C 370.207 344.242,368.468 343.549,365.200 342.606 C 364.210 342.320,362.950 341.911,362.400 341.696 C 358.713 340.260,351.405 338.433,346.600 337.748 C 336.060 336.244,333.047 336.016,323.600 336.009 C 313.836 336.001,312.674 336.109,304.800 337.749 C 299.630 338.826,292.616 341.471,289.200 343.630 C 286.695 345.214,281.180 348.501,280.200 348.994 C 279.540 349.327,278.460 349.949,277.800 350.378 C 276.327 351.336,272.397 353.442,268.400 355.416 C 266.750 356.231,265.130 357.057,264.800 357.252 C 264.470 357.447,263.750 357.811,263.200 358.062 C 262.650 358.313,260.760 359.189,259.000 360.009 C 254.275 362.209,252.917 362.798,252.540 362.814 C 252.353 362.821,251.480 363.175,250.600 363.600 C 249.720 364.025,248.840 364.379,248.644 364.386 C 248.448 364.394,247.548 364.744,246.644 365.164 C 245.740 365.585,242.570 366.689,239.600 367.617 C 236.630 368.545,233.164 369.641,231.898 370.052 C 230.633 370.464,229.229 370.800,228.779 370.800 C 228.328 370.800,227.474 371.046,226.880 371.346 C 226.286 371.646,224.824 372.016,223.631 372.169 C 222.438 372.321,221.178 372.597,220.831 372.783 C 217.677 374.465,190.599 377.093,181.200 376.628 C 168.083 375.980,150.413 373.997,148.785 372.991 C 148.586 372.868,146.944 372.507,145.137 372.189 C 143.330 371.871,141.669 371.429,141.446 371.206 C 141.223 370.983,140.491 370.805,139.820 370.811 C 137.908 370.828,122.787 365.854,117.756 363.552 C 116.852 363.138,115.952 362.794,115.756 362.786 C 115.560 362.779,114.680 362.425,113.800 362.000 C 112.920 361.575,111.997 361.221,111.749 361.214 C 111.501 361.206,111.083 360.942,110.821 360.626 C 110.559 360.310,109.830 359.938,109.200 359.800 C 108.570 359.662,107.841 359.290,107.579 358.974 C 107.317 358.658,106.714 358.400,106.240 358.400 C 105.766 358.400,104.933 358.087,104.389 357.703 C 103.323 356.952,102.324 356.389,98.600 354.436 C 97.280 353.743,95.480 352.737,94.600 352.199 C 93.720 351.661,92.460 350.920,91.800 350.553 C 91.140 350.186,89.340 349.058,87.800 348.046 C 86.260 347.034,84.709 346.024,84.353 345.803 C 82.794 344.832,81.370 343.824,81.000 343.428 C 80.780 343.193,79.790 342.464,78.800 341.810 C 77.810 341.155,76.550 340.186,76.000 339.657 C 75.450 339.127,74.355 338.284,73.566 337.784 C 72.268 336.960,70.256 335.265,67.121 332.354 C 66.501 331.779,65.252 330.699,64.344 329.954 C 61.970 328.008,54.116 320.142,52.000 317.594 C 51.010 316.401,49.298 314.430,48.195 313.213 C 44.314 308.930,35.600 297.298,35.600 296.400 C 35.600 296.202,35.363 295.896,35.073 295.720 C 34.783 295.544,33.928 294.355,33.173 293.077 C 32.418 291.799,31.396 290.089,30.903 289.277 C 30.409 288.465,29.722 287.260,29.375 286.600 C 29.029 285.940,28.459 284.860,28.111 284.200 C 27.762 283.540,27.354 282.910,27.205 282.800 C 27.055 282.690,25.987 280.710,24.831 278.400 C 23.674 276.090,22.584 274.020,22.409 273.800 C 22.234 273.580,21.612 272.140,21.027 270.600 C 19.976 267.831,19.722 267.235,17.991 263.475 C 17.503 262.416,16.957 260.976,16.777 260.275 C 16.597 259.574,15.969 257.740,15.382 256.200 C 14.795 254.660,14.044 252.410,13.715 251.200 C 13.385 249.990,12.971 248.820,12.795 248.600 C 12.619 248.380,12.345 247.300,12.187 246.200 C 12.029 245.100,11.743 244.003,11.553 243.763 C 11.362 243.522,10.949 242.082,10.634 240.563 C 10.320 239.043,9.793 236.720,9.464 235.400 C 6.589 223.883,5.444 210.766,5.744 192.800 C 5.978 178.720,5.915 179.367,8.809 161.400 C 9.022 160.080,9.452 158.190,9.766 157.200 C 10.080 156.210,10.529 154.340,10.765 153.045 C 11.000 151.750,11.354 150.490,11.551 150.245 C 11.748 150.000,12.041 148.990,12.201 148.000 C 12.362 147.010,12.666 145.871,12.877 145.469 C 13.088 145.067,13.497 143.897,13.785 142.869 C 14.074 141.841,14.537 140.370,14.815 139.600 C 15.093 138.830,15.632 137.300,16.011 136.200 C 17.245 132.626,18.944 128.210,19.242 127.799 C 19.402 127.578,19.921 126.408,20.395 125.199 C 21.526 122.310,26.659 111.839,27.944 109.800 C 28.499 108.920,29.454 107.266,30.067 106.124 C 31.121 104.163,35.899 96.831,36.404 96.400 C 36.533 96.290,37.152 95.300,37.779 94.200 C 38.406 93.100,39.159 91.930,39.451 91.600 C 39.743 91.270,40.820 89.920,41.843 88.600 C 42.866 87.280,43.905 86.020,44.152 85.800 C 44.398 85.580,45.107 84.653,45.726 83.741 C 46.345 82.828,47.656 81.208,48.640 80.141 C 49.623 79.073,51.276 77.227,52.314 76.038 C 54.304 73.756,61.118 66.800,61.363 66.800 C 61.441 66.800,62.211 66.125,63.072 65.300 C 66.020 62.476,69.801 59.251,74.200 55.806 C 76.620 53.911,79.200 51.875,79.934 51.281 C 80.667 50.686,81.626 50.066,82.065 49.901 C 82.503 49.737,83.613 49.003,84.531 48.270 C 85.449 47.537,87.100 46.424,88.200 45.797 C 89.300 45.170,91.053 44.059,92.096 43.328 C 93.139 42.598,94.093 42.000,94.217 42.000 C 94.341 42.000,96.278 40.955,98.521 39.678 C 103.532 36.825,109.042 34.138,113.800 32.228 C 115.780 31.433,117.850 30.536,118.400 30.234 C 118.950 29.931,120.030 29.495,120.800 29.264 C 121.570 29.033,123.460 28.367,125.000 27.785 C 126.540 27.202,128.707 26.497,129.817 26.218 C 130.926 25.939,132.186 25.513,132.617 25.272 C 133.047 25.030,134.210 24.655,135.200 24.439 C 136.190 24.223,138.980 23.521,141.400 22.878 C 145.347 21.830,151.390 20.644,158.200 19.580 C 159.520 19.374,161.860 19.005,163.400 18.761 C 164.940 18.516,169.650 18.200,173.867 18.058 C 178.083 17.916,181.682 17.652,181.863 17.470 C 182.045 17.289,183.365 17.241,184.797 17.365 C 186.228 17.488,190.820 17.758,195.000 17.964 " stroke="none" fill="#ffffff" fill-rule="evenodd"></path><path id="path1" d="M173.800 20.828 C 169.400 20.975,165.184 21.296,164.431 21.540 C 163.678 21.784,161.158 22.102,158.831 22.247 C 156.504 22.391,154.104 22.760,153.498 23.066 C 152.892 23.372,151.182 23.779,149.698 23.971 C 148.214 24.163,146.550 24.496,146.000 24.711 C 145.450 24.925,144.010 25.234,142.800 25.397 C 141.590 25.560,140.148 25.925,139.595 26.208 C 139.042 26.491,137.692 26.850,136.595 27.005 C 135.498 27.160,134.208 27.533,133.728 27.834 C 133.249 28.135,132.079 28.504,131.128 28.653 C 130.178 28.803,129.040 29.149,128.600 29.423 C 128.160 29.697,127.173 30.053,126.406 30.213 C 125.639 30.374,124.649 30.734,124.206 31.013 C 123.763 31.293,122.773 31.653,122.006 31.813 C 121.239 31.974,120.249 32.334,119.806 32.613 C 119.363 32.893,118.427 33.241,117.728 33.386 C 117.028 33.532,116.241 33.910,115.979 34.226 C 115.717 34.542,115.245 34.800,114.930 34.800 C 114.616 34.800,113.693 35.138,112.879 35.551 C 112.066 35.965,110.590 36.671,109.600 37.121 C 108.610 37.572,106.720 38.495,105.400 39.173 C 104.080 39.850,102.325 40.701,101.500 41.063 C 100.675 41.425,100.000 41.855,100.000 42.017 C 100.000 42.180,99.519 42.434,98.932 42.581 C 98.344 42.729,97.420 43.198,96.878 43.625 C 96.336 44.051,95.674 44.400,95.408 44.400 C 95.142 44.400,94.598 44.760,94.200 45.200 C 93.802 45.640,93.322 46.000,93.134 46.000 C 92.946 46.000,91.895 46.630,90.800 47.400 C 89.705 48.170,88.681 48.800,88.526 48.800 C 88.085 48.800,85.038 50.939,84.680 51.499 C 84.504 51.774,84.173 52.000,83.943 52.000 C 83.487 52.000,83.278 52.152,77.304 56.808 C 75.051 58.563,73.116 60.000,73.004 60.000 C 72.892 60.000,72.471 60.315,72.069 60.700 C 71.668 61.085,70.031 62.570,68.432 64.000 C 66.833 65.430,64.056 67.994,62.262 69.697 C 60.468 71.400,58.865 72.795,58.700 72.797 C 58.535 72.799,58.400 72.960,58.400 73.156 C 58.400 73.352,57.455 74.492,56.300 75.690 C 55.145 76.889,53.300 78.896,52.200 80.152 C 51.100 81.407,49.964 82.694,49.677 83.012 C 49.389 83.330,48.002 85.077,46.594 86.895 C 43.045 91.479,42.694 91.927,41.900 92.881 C 41.515 93.344,41.200 93.859,41.200 94.025 C 41.200 94.192,40.480 95.239,39.600 96.352 C 38.720 97.466,38.000 98.474,38.000 98.592 C 38.000 98.711,37.391 99.674,36.647 100.733 C 35.903 101.792,34.997 103.185,34.635 103.829 C 34.272 104.473,33.621 105.540,33.187 106.200 C 32.753 106.860,32.126 107.985,31.794 108.700 C 31.461 109.415,31.026 110.000,30.826 110.000 C 30.627 110.000,30.348 110.528,30.206 111.172 C 30.064 111.817,29.702 112.550,29.400 112.800 C 29.098 113.050,28.738 113.770,28.600 114.400 C 28.462 115.030,28.102 115.750,27.800 116.000 C 27.498 116.250,27.133 116.995,26.988 117.655 C 26.843 118.314,26.472 118.951,26.162 119.070 C 25.853 119.188,25.600 119.562,25.600 119.899 C 25.600 120.514,24.588 122.914,23.163 125.679 C 22.743 126.493,22.400 127.364,22.400 127.616 C 22.400 127.868,22.040 128.531,21.600 129.091 C 21.160 129.650,20.799 130.579,20.797 131.154 C 20.796 131.729,20.437 132.740,20.000 133.400 C 19.563 134.060,19.203 134.960,19.200 135.400 C 19.197 135.840,18.920 136.728,18.583 137.374 C 18.246 138.019,17.808 139.189,17.608 139.974 C 17.191 141.614,16.172 144.764,15.401 146.800 C 14.735 148.557,13.741 152.508,12.992 156.372 C 12.675 158.006,12.233 159.527,12.008 159.752 C 11.784 159.976,11.600 160.895,11.600 161.793 C 11.600 162.691,11.316 164.410,10.970 165.613 C 10.623 166.816,10.101 170.140,9.810 173.000 C 9.518 175.860,9.086 179.010,8.849 180.000 C 8.285 182.364,8.266 212.000,8.828 214.200 C 9.052 215.080,9.485 218.140,9.788 221.000 C 10.092 223.860,10.623 227.184,10.970 228.387 C 11.316 229.590,11.600 231.317,11.600 232.226 C 11.600 233.134,11.853 234.400,12.163 235.039 C 12.472 235.677,12.852 237.190,13.007 238.400 C 13.163 239.610,13.451 240.800,13.648 241.045 C 13.845 241.290,14.188 242.550,14.408 243.845 C 14.629 245.140,15.061 246.740,15.369 247.400 C 15.676 248.060,16.109 249.320,16.331 250.200 C 16.552 251.080,17.210 253.060,17.792 254.600 C 18.374 256.140,19.025 258.098,19.239 258.952 C 19.452 259.805,19.891 260.881,20.214 261.341 C 20.536 261.801,20.800 262.507,20.800 262.910 C 20.800 263.312,21.146 264.307,21.570 265.121 C 21.993 265.934,22.744 267.500,23.238 268.600 C 23.733 269.700,24.466 271.255,24.869 272.054 C 25.271 272.854,25.600 273.722,25.600 273.983 C 25.600 274.244,25.879 274.736,26.220 275.077 C 26.560 275.418,26.943 276.215,27.070 276.848 C 27.196 277.482,27.438 278.000,27.607 278.000 C 27.775 278.000,28.208 278.675,28.569 279.500 C 28.930 280.325,29.657 281.720,30.185 282.600 C 30.713 283.480,31.424 284.740,31.764 285.400 C 32.105 286.060,32.613 286.955,32.892 287.390 C 35.758 291.845,36.400 292.894,36.402 293.128 C 36.403 293.278,37.123 294.349,38.002 295.508 C 38.881 296.668,39.600 297.771,39.600 297.959 C 39.600 298.148,39.864 298.521,40.186 298.788 C 40.508 299.056,41.397 300.203,42.162 301.337 C 42.927 302.472,44.103 304.030,44.776 304.800 C 45.448 305.570,45.999 306.341,45.999 306.513 C 46.000 306.686,46.630 307.457,47.400 308.227 C 48.170 308.997,48.800 309.761,48.800 309.924 C 48.800 310.088,49.115 310.502,49.500 310.844 C 50.430 311.671,52.571 314.056,55.026 317.000 C 57.411 319.861,63.546 326.000,64.020 326.000 C 64.204 326.000,64.590 326.315,64.877 326.700 C 65.165 327.085,66.472 328.300,67.781 329.400 C 69.091 330.500,70.540 331.760,71.000 332.200 C 71.460 332.640,72.459 333.492,73.219 334.093 C 73.978 334.694,75.762 336.109,77.182 337.237 C 78.602 338.366,80.222 339.577,80.782 339.930 C 81.342 340.283,82.520 341.118,83.400 341.786 C 84.280 342.453,85.290 343.180,85.644 343.400 C 85.998 343.620,86.808 344.141,87.444 344.558 C 88.694 345.377,91.870 347.408,93.800 348.622 C 95.524 349.706,96.678 350.334,101.416 352.767 C 103.737 353.959,105.720 355.070,105.822 355.236 C 105.925 355.403,106.535 355.654,107.177 355.795 C 107.819 355.936,108.545 356.292,108.789 356.586 C 109.033 356.881,109.720 357.243,110.316 357.392 C 110.912 357.541,111.670 357.896,112.000 358.180 C 112.330 358.465,113.257 358.816,114.060 358.960 C 114.863 359.104,115.722 359.465,115.969 359.762 C 116.216 360.060,116.982 360.416,117.671 360.554 C 118.360 360.692,119.191 361.027,119.518 361.298 C 119.844 361.569,120.852 361.998,121.756 362.252 C 122.660 362.506,124.660 363.195,126.200 363.782 C 127.740 364.369,129.720 365.025,130.600 365.239 C 131.480 365.453,132.767 365.892,133.460 366.214 C 134.154 366.536,135.095 366.800,135.552 366.800 C 136.010 366.800,137.062 367.065,137.892 367.389 C 139.266 367.926,140.454 368.226,146.600 369.586 C 152.292 370.845,154.004 371.168,156.200 371.393 C 157.520 371.529,159.770 371.896,161.200 372.209 C 169.653 374.060,201.225 374.071,207.800 372.225 C 208.900 371.916,210.970 371.548,212.400 371.407 C 213.830 371.266,216.260 370.877,217.800 370.543 C 223.569 369.293,229.049 367.925,230.508 367.372 C 231.338 367.057,232.390 366.800,232.848 366.800 C 233.305 366.800,234.246 366.550,234.940 366.245 C 235.633 365.939,238.090 365.093,240.400 364.365 C 242.710 363.637,245.050 362.808,245.600 362.523 C 246.150 362.238,246.983 362.004,247.451 362.002 C 247.919 362.001,248.522 361.735,248.791 361.411 C 249.060 361.086,249.894 360.706,250.645 360.565 C 251.395 360.424,252.099 360.163,252.210 359.984 C 252.321 359.805,253.084 359.448,253.906 359.192 C 255.341 358.744,261.559 355.930,262.800 355.167 C 263.130 354.964,263.850 354.619,264.400 354.399 C 264.950 354.180,265.670 353.819,266.000 353.598 C 266.330 353.376,266.870 353.091,267.200 352.965 C 268.410 352.501,269.428 351.973,270.600 351.202 C 271.260 350.767,272.250 350.224,272.800 349.994 C 274.072 349.463,274.292 349.347,276.064 348.281 C 279.997 345.915,282.024 344.800,282.394 344.800 C 282.617 344.800,282.800 344.641,282.800 344.446 C 282.800 344.251,283.385 343.786,284.100 343.413 C 284.815 343.040,286.120 342.315,287.000 341.802 C 291.664 339.085,297.688 336.554,301.800 335.583 C 302.680 335.375,304.300 334.944,305.400 334.625 C 312.850 332.463,333.664 332.373,344.400 334.456 C 345.610 334.691,347.950 335.114,349.600 335.397 C 352.657 335.920,358.753 337.393,360.200 337.959 C 361.812 338.589,365.050 339.665,366.959 340.205 C 368.037 340.510,369.108 340.948,369.339 341.179 C 369.571 341.411,370.027 341.600,370.354 341.600 C 370.680 341.600,371.679 341.942,372.574 342.360 C 373.468 342.778,374.875 343.332,375.700 343.591 C 376.525 343.850,377.200 344.228,377.200 344.431 C 377.200 344.634,377.557 344.800,377.992 344.800 C 378.698 344.800,382.910 346.596,387.400 348.812 C 388.280 349.247,389.226 349.602,389.501 349.601 C 389.777 349.600,390.661 349.953,391.466 350.384 C 393.078 351.248,393.728 351.141,393.259 350.087 C 391.167 345.392,386.733 338.334,384.700 336.466 C 384.315 336.112,384.000 335.634,384.000 335.404 C 384.000 334.945,380.522 330.792,379.708 330.280 C 379.429 330.104,379.200 329.699,379.200 329.380 C 379.200 329.061,378.930 328.800,378.600 328.800 C 378.270 328.800,378.000 328.627,378.000 328.416 C 378.000 328.205,377.071 327.170,375.936 326.116 C 374.801 325.062,373.011 323.363,371.958 322.341 C 370.905 321.318,368.954 319.717,367.622 318.783 C 366.290 317.849,365.200 316.930,365.200 316.742 C 365.200 316.554,364.952 316.400,364.649 316.400 C 364.346 316.400,363.851 316.102,363.549 315.738 C 363.247 315.374,362.415 314.832,361.700 314.533 C 360.985 314.234,360.400 313.834,360.400 313.643 C 360.400 313.453,359.860 313.073,359.200 312.800 C 358.540 312.527,358.000 312.145,358.000 311.951 C 358.000 311.758,357.754 311.600,357.454 311.600 C 357.154 311.600,356.464 311.251,355.922 310.825 C 355.380 310.398,354.442 309.925,353.836 309.773 C 353.231 309.621,352.647 309.268,352.540 308.988 C 352.433 308.708,351.740 308.365,351.001 308.227 C 350.263 308.088,349.585 307.755,349.496 307.487 C 349.201 306.602,301.490 306.804,299.250 307.700 C 298.287 308.085,296.577 308.406,295.450 308.413 C 294.312 308.420,293.064 308.679,292.646 308.996 C 292.231 309.310,291.067 309.691,290.059 309.842 C 289.051 309.993,287.982 310.361,287.685 310.658 C 287.387 310.956,286.439 311.312,285.579 311.450 C 284.719 311.587,283.810 311.947,283.559 312.250 C 283.307 312.552,282.909 312.800,282.673 312.800 C 282.230 312.800,279.409 314.613,278.471 315.500 C 278.181 315.775,277.813 316.000,277.655 316.000 C 277.496 316.000,276.474 316.809,275.383 317.798 C 274.292 318.787,273.194 319.597,272.943 319.598 C 272.691 319.599,272.382 319.870,272.255 320.200 C 272.129 320.530,271.777 320.800,271.475 320.800 C 271.172 320.800,270.598 321.160,270.200 321.600 C 269.802 322.040,269.247 322.400,268.967 322.400 C 268.686 322.400,268.181 322.676,267.844 323.013 C 267.506 323.351,266.230 324.153,265.008 324.796 C 263.785 325.439,262.388 326.243,261.903 326.583 C 261.419 326.922,260.702 327.200,260.311 327.200 C 259.920 327.200,259.600 327.358,259.600 327.551 C 259.600 327.745,259.015 328.128,258.300 328.404 C 257.585 328.679,256.268 329.241,255.374 329.652 C 254.479 330.064,253.556 330.400,253.323 330.400 C 253.089 330.400,252.674 330.670,252.400 331.000 C 252.126 331.330,251.606 331.600,251.245 331.600 C 250.884 331.600,249.916 331.960,249.096 332.400 C 248.275 332.840,247.287 333.201,246.901 333.202 C 246.516 333.204,245.664 333.485,245.008 333.826 C 244.353 334.168,242.914 334.641,241.812 334.878 C 240.710 335.114,239.446 335.536,239.004 335.815 C 238.562 336.095,237.436 336.446,236.502 336.596 C 235.568 336.747,234.709 337.024,234.593 337.212 C 234.476 337.400,233.531 337.671,232.491 337.815 C 231.451 337.959,229.700 338.342,228.600 338.667 C 227.500 338.992,225.700 339.404,224.600 339.583 C 223.500 339.763,221.430 340.189,220.000 340.531 C 215.019 341.723,209.767 342.520,204.800 342.837 C 202.050 343.013,198.900 343.335,197.800 343.554 C 195.184 344.075,175.981 344.070,173.400 343.548 C 172.300 343.325,169.194 342.986,166.498 342.794 C 163.802 342.602,161.422 342.337,161.209 342.205 C 160.996 342.074,159.062 341.616,156.911 341.188 C 149.701 339.754,139.092 336.750,136.600 335.437 C 135.940 335.089,135.084 334.804,134.699 334.802 C 134.313 334.801,133.325 334.440,132.504 334.000 C 131.684 333.560,130.626 333.200,130.155 333.200 C 129.684 333.200,129.074 332.930,128.800 332.600 C 128.526 332.270,128.009 331.999,127.651 331.999 C 127.293 331.998,126.456 331.665,125.790 331.259 C 125.125 330.854,123.910 330.300,123.090 330.030 C 122.271 329.759,121.600 329.372,121.600 329.169 C 121.600 328.966,121.264 328.800,120.854 328.800 C 120.444 328.800,119.650 328.440,119.091 328.000 C 118.531 327.560,117.811 327.200,117.491 327.200 C 117.170 327.200,116.479 326.878,115.954 326.484 C 115.429 326.090,114.550 325.548,114.000 325.280 C 113.450 325.011,112.460 324.438,111.800 324.007 C 111.140 323.576,109.970 322.853,109.200 322.401 C 108.430 321.949,107.170 321.209,106.400 320.757 C 105.630 320.305,104.336 319.410,103.523 318.767 C 102.711 318.125,101.934 317.600,101.797 317.600 C 101.577 317.600,99.505 316.139,98.110 315.000 C 97.841 314.780,97.151 314.240,96.578 313.800 C 96.005 313.360,95.253 312.735,94.907 312.411 C 94.561 312.087,93.181 310.960,91.839 309.907 C 88.415 307.220,79.200 298.727,79.200 298.259 C 79.200 298.172,78.165 297.015,76.900 295.689 C 75.635 294.363,74.240 292.801,73.800 292.219 C 73.360 291.637,72.216 290.242,71.258 289.119 C 69.142 286.641,65.200 281.343,65.200 280.979 C 65.200 280.834,64.615 279.986,63.900 279.094 C 62.587 277.456,61.743 276.073,60.610 273.700 C 60.269 272.985,59.829 272.400,59.634 272.400 C 59.438 272.400,59.077 271.905,58.830 271.300 C 58.321 270.050,57.119 267.899,56.761 267.600 C 56.630 267.490,55.303 264.880,53.812 261.800 C 50.244 254.432,49.600 253.002,49.600 252.455 C 49.600 252.203,49.240 251.325,48.800 250.504 C 48.360 249.684,48.000 248.777,48.000 248.490 C 48.000 248.203,47.640 247.262,47.200 246.400 C 46.760 245.538,46.399 244.510,46.398 244.116 C 46.396 243.722,46.124 242.881,45.794 242.247 C 45.463 241.613,45.076 240.353,44.934 239.447 C 44.791 238.541,44.444 237.440,44.161 237.000 C 43.879 236.560,43.519 235.210,43.363 234.000 C 43.206 232.790,42.845 231.440,42.561 231.000 C 42.276 230.560,41.862 228.850,41.640 227.200 C 41.418 225.550,40.964 222.760,40.632 221.000 C 40.300 219.240,40.022 216.954,40.014 215.920 C 40.006 214.885,39.730 213.002,39.400 211.735 C 38.550 208.473,38.544 186.112,39.392 182.600 C 39.711 181.280,39.985 179.390,40.002 178.400 C 40.018 177.410,40.295 175.250,40.616 173.600 C 40.937 171.950,41.393 169.079,41.629 167.220 C 41.865 165.360,42.248 163.483,42.481 163.048 C 42.714 162.613,43.130 161.254,43.405 160.028 C 43.680 158.803,44.090 157.260,44.316 156.600 C 44.543 155.940,45.127 154.050,45.614 152.400 C 46.676 148.803,48.385 144.107,49.035 143.000 C 49.293 142.560,49.621 141.698,49.764 141.084 C 49.907 140.470,50.648 138.633,51.412 137.002 C 52.175 135.371,52.800 133.871,52.800 133.667 C 52.800 133.464,53.058 133.083,53.374 132.821 C 53.690 132.559,54.065 131.815,54.207 131.168 C 54.349 130.521,54.676 129.764,54.933 129.486 C 55.190 129.207,55.845 128.084,56.390 126.990 C 56.934 125.895,58.014 124.010,58.789 122.800 C 59.564 121.590,60.415 120.105,60.680 119.500 C 60.945 118.895,61.350 118.400,61.581 118.400 C 61.811 118.400,62.000 118.200,62.000 117.956 C 62.000 117.426,64.433 113.600,64.770 113.600 C 64.899 113.600,65.224 113.104,65.492 112.499 C 66.038 111.266,75.030 99.875,75.622 99.667 C 75.830 99.593,76.000 99.366,76.000 99.163 C 76.000 98.779,85.591 89.100,88.024 87.028 C 88.781 86.383,90.840 84.688,92.600 83.260 C 94.360 81.832,96.122 80.335,96.516 79.932 C 96.909 79.529,97.394 79.200,97.593 79.200 C 97.793 79.200,98.640 78.566,99.478 77.791 C 100.315 77.016,101.405 76.276,101.900 76.148 C 102.395 76.019,102.800 75.744,102.800 75.537 C 102.800 75.331,103.295 74.944,103.900 74.679 C 105.127 74.142,107.135 72.863,107.902 72.131 C 108.179 71.868,108.795 71.529,109.272 71.377 C 109.748 71.226,110.332 70.933,110.569 70.727 C 111.365 70.035,113.774 68.654,117.554 66.724 C 119.619 65.670,121.509 64.648,121.754 64.453 C 121.999 64.258,122.650 63.972,123.200 63.819 C 123.750 63.665,124.920 63.202,125.800 62.790 C 129.305 61.148,131.071 60.400,131.442 60.400 C 131.656 60.400,132.537 60.040,133.400 59.600 C 134.263 59.160,135.300 58.800,135.704 58.800 C 136.109 58.800,136.932 58.545,137.534 58.234 C 138.135 57.923,139.341 57.540,140.214 57.382 C 141.086 57.225,142.028 56.915,142.306 56.694 C 143.290 55.912,153.676 53.585,162.400 52.190 C 170.517 50.893,173.492 50.730,186.000 50.895 C 198.875 51.065,199.729 51.147,210.400 53.233 C 211.610 53.470,213.887 53.901,215.460 54.191 C 217.034 54.482,218.924 54.909,219.660 55.141 C 220.397 55.373,221.900 55.851,223.000 56.202 C 224.100 56.554,225.810 57.093,226.800 57.399 C 230.031 58.400,233.305 59.590,233.757 59.928 C 234.001 60.111,234.965 60.479,235.900 60.746 C 236.835 61.013,237.600 61.405,237.600 61.616 C 237.600 61.827,237.848 62.000,238.152 62.000 C 238.705 62.000,242.874 63.724,244.000 64.418 C 244.330 64.622,245.163 65.042,245.851 65.353 C 246.539 65.664,247.225 66.117,247.375 66.359 C 247.525 66.602,247.975 66.800,248.375 66.800 C 248.775 66.800,249.342 67.089,249.635 67.442 C 249.927 67.795,250.573 68.238,251.070 68.427 C 252.081 68.811,261.177 74.728,261.800 75.406 C 262.020 75.646,263.008 76.372,263.995 77.021 C 264.982 77.669,266.383 78.785,267.108 79.500 C 267.833 80.215,268.536 80.800,268.669 80.800 C 269.610 80.800,280.575 91.540,284.189 96.000 C 285.704 97.870,287.136 99.611,287.372 99.868 C 287.607 100.125,288.118 100.755,288.506 101.268 C 288.895 101.781,290.020 103.223,291.006 104.473 C 291.993 105.723,292.800 106.856,292.800 106.990 C 292.800 107.124,293.160 107.620,293.600 108.092 C 294.040 108.564,294.400 109.187,294.400 109.475 C 294.400 109.764,294.715 110.330,295.100 110.734 C 296.188 111.875,297.787 114.392,299.715 118.000 C 300.362 119.210,301.104 120.470,301.364 120.800 C 301.841 121.406,303.800 125.392,305.788 129.800 C 306.383 131.120,307.214 132.866,307.635 133.679 C 308.056 134.493,308.400 135.400,308.400 135.695 C 308.400 135.990,308.760 136.937,309.200 137.800 C 309.640 138.663,310.000 139.759,310.000 140.236 C 310.000 140.712,310.256 141.314,310.569 141.574 C 310.882 141.834,311.264 142.797,311.419 143.714 C 311.574 144.632,311.939 145.746,312.230 146.191 C 312.521 146.636,312.887 147.810,313.042 148.800 C 313.198 149.790,313.550 150.960,313.825 151.400 C 314.099 151.840,314.451 153.190,314.607 154.400 C 314.762 155.610,315.055 156.805,315.257 157.056 C 315.459 157.306,315.812 158.656,316.041 160.056 C 316.270 161.455,316.623 163.050,316.825 163.600 C 317.028 164.150,317.477 166.490,317.824 168.800 C 318.171 171.110,318.612 173.990,318.805 175.200 C 319.692 180.770,320.017 194.153,320.045 226.200 C 320.061 245.120,320.193 262.670,320.337 265.200 L 320.600 269.800 333.000 269.904 C 339.820 269.962,345.995 269.907,346.723 269.782 L 348.045 269.555 347.895 229.278 C 347.723 183.397,347.633 181.447,344.764 161.200 C 344.340 158.208,343.291 153.524,342.365 150.492 C 341.944 149.112,341.600 147.438,341.600 146.772 C 341.600 146.105,341.353 145.074,341.052 144.480 C 340.751 143.886,340.375 142.515,340.217 141.433 C 340.060 140.352,339.694 139.092,339.405 138.633 C 339.115 138.175,338.760 137.170,338.616 136.400 C 338.472 135.630,338.190 134.640,337.991 134.200 C 337.456 133.019,336.014 128.804,335.608 127.233 C 335.413 126.482,334.991 125.312,334.668 124.633 C 334.346 123.955,333.685 122.410,333.200 121.200 C 332.211 118.736,331.033 116.118,329.935 113.946 C 329.531 113.146,329.200 112.223,329.200 111.895 C 329.200 111.566,328.948 111.089,328.639 110.833 C 328.331 110.577,327.960 109.894,327.814 109.315 C 327.669 108.737,327.202 107.820,326.775 107.278 C 326.349 106.736,326.000 105.956,326.000 105.546 C 326.000 105.136,325.840 104.800,325.643 104.800 C 325.447 104.800,324.990 104.125,324.627 103.300 C 323.775 101.365,322.717 99.522,322.162 99.007 C 321.921 98.783,321.494 98.015,321.213 97.300 C 320.933 96.585,320.545 96.000,320.351 96.000 C 320.158 96.000,320.000 95.760,320.000 95.466 C 320.000 95.173,319.280 93.905,318.400 92.649 C 317.520 91.392,316.800 90.201,316.800 90.002 C 316.800 89.803,316.572 89.496,316.293 89.320 C 316.014 89.144,314.889 87.695,313.793 86.099 C 310.589 81.436,310.047 80.709,308.204 78.589 C 307.242 77.483,305.898 75.863,305.218 74.989 C 303.421 72.681,299.983 68.847,298.629 67.642 C 297.146 66.322,296.580 65.749,294.577 63.537 C 293.684 62.551,292.649 61.628,292.277 61.485 C 291.905 61.342,291.600 60.949,291.600 60.613 C 291.600 60.276,291.336 60.000,291.014 60.000 C 290.692 60.000,290.235 59.640,290.000 59.200 C 289.765 58.760,289.353 58.399,289.086 58.398 C 288.819 58.397,287.746 57.632,286.702 56.698 C 283.406 53.749,282.972 53.401,279.816 51.176 C 278.118 49.979,275.879 48.348,274.841 47.551 C 273.803 46.754,272.559 45.977,272.077 45.824 C 271.594 45.671,271.200 45.381,271.200 45.178 C 271.200 44.976,270.615 44.539,269.900 44.206 C 269.185 43.874,268.060 43.243,267.400 42.805 C 266.740 42.367,265.750 41.783,265.200 41.508 C 264.650 41.233,263.615 40.618,262.899 40.141 C 262.184 39.665,260.204 38.618,258.499 37.815 C 256.795 37.012,255.130 36.184,254.800 35.974 C 254.470 35.765,253.750 35.398,253.200 35.158 C 251.811 34.552,249.341 33.443,247.156 32.443 C 246.142 31.980,244.949 31.600,244.505 31.600 C 244.061 31.600,243.492 31.352,243.240 31.048 C 242.988 30.745,242.232 30.386,241.559 30.252 C 240.886 30.117,239.766 29.767,239.068 29.474 C 236.658 28.459,233.793 27.535,231.815 27.135 C 230.724 26.914,229.357 26.488,228.778 26.189 C 228.199 25.889,226.752 25.520,225.563 25.368 C 224.373 25.217,223.067 24.921,222.659 24.710 C 222.252 24.500,220.735 24.161,219.290 23.956 C 217.844 23.751,215.837 23.323,214.831 23.005 C 213.824 22.687,211.020 22.251,208.600 22.036 C 206.180 21.821,203.300 21.470,202.200 21.256 C 199.515 20.734,183.691 20.495,173.800 20.828 " stroke="none" fill="#006fbb" fill-rule="evenodd"></path><path id="path2" d="M179.000 19.838 C 177.900 19.919,173.760 20.180,169.800 20.417 C 162.745 20.840,155.980 21.738,150.000 23.045 C 139.858 25.262,136.231 26.179,132.000 27.595 C 130.790 28.000,128.810 28.632,127.600 29.000 C 124.226 30.025,118.556 32.230,114.200 34.209 C 113.100 34.709,110.580 35.846,108.600 36.736 C 104.718 38.479,101.807 39.978,97.400 42.502 C 94.703 44.046,93.652 44.696,87.298 48.749 C 84.388 50.604,76.326 56.395,75.200 57.437 C 74.870 57.743,73.504 58.849,72.165 59.896 C 64.630 65.787,51.450 79.124,46.600 85.766 C 46.160 86.368,45.396 87.306,44.902 87.849 C 42.488 90.505,31.600 106.545,31.600 107.446 C 31.600 107.573,31.263 108.154,30.852 108.738 C 30.063 109.856,24.669 120.458,23.238 123.700 C 22.777 124.745,22.051 126.365,21.625 127.300 C 19.639 131.653,15.359 143.689,14.121 148.400 C 10.494 162.207,9.058 170.265,8.208 181.600 C 7.593 189.799,7.481 203.312,7.979 209.400 C 8.171 211.754,8.299 207.601,8.346 197.400 C 8.391 187.928,8.588 181.093,8.849 180.000 C 9.086 179.010,9.518 175.860,9.810 173.000 C 10.101 170.140,10.623 166.816,10.970 165.613 C 11.316 164.410,11.600 162.691,11.600 161.793 C 11.600 160.895,11.784 159.976,12.008 159.752 C 12.233 159.527,12.675 158.006,12.992 156.372 C 13.741 152.508,14.735 148.557,15.401 146.800 C 16.172 144.764,17.191 141.614,17.608 139.974 C 17.808 139.189,18.246 138.019,18.583 137.374 C 18.920 136.728,19.197 135.840,19.200 135.400 C 19.203 134.960,19.563 134.060,20.000 133.400 C 20.437 132.740,20.796 131.729,20.797 131.154 C 20.799 130.579,21.160 129.650,21.600 129.091 C 22.040 128.531,22.400 127.868,22.400 127.616 C 22.400 127.364,22.743 126.493,23.163 125.679 C 24.588 122.914,25.600 120.514,25.600 119.899 C 25.600 119.562,25.853 119.188,26.162 119.070 C 26.472 118.951,26.843 118.314,26.988 117.655 C 27.133 116.995,27.498 116.250,27.800 116.000 C 28.102 115.750,28.462 115.030,28.600 114.400 C 28.738 113.770,29.098 113.050,29.400 112.800 C 29.702 112.550,30.064 111.817,30.206 111.172 C 30.348 110.528,30.627 110.000,30.826 110.000 C 31.026 110.000,31.461 109.415,31.794 108.700 C 32.126 107.985,32.753 106.860,33.187 106.200 C 33.621 105.540,34.272 104.473,34.635 103.829 C 34.997 103.185,35.903 101.792,36.647 100.733 C 37.391 99.674,38.000 98.711,38.000 98.592 C 38.000 98.474,38.720 97.466,39.600 96.352 C 40.480 95.239,41.200 94.192,41.200 94.025 C 41.200 93.859,41.515 93.344,41.900 92.881 C 42.694 91.927,43.045 91.479,46.594 86.895 C 48.002 85.077,49.389 83.330,49.677 83.012 C 49.964 82.694,51.100 81.407,52.200 80.152 C 53.300 78.896,55.145 76.889,56.300 75.690 C 57.455 74.492,58.400 73.352,58.400 73.156 C 58.400 72.960,58.535 72.799,58.700 72.797 C 58.865 72.795,60.468 71.400,62.262 69.697 C 64.056 67.994,66.833 65.430,68.432 64.000 C 70.031 62.570,71.668 61.085,72.069 60.700 C 72.471 60.315,72.892 60.000,73.004 60.000 C 73.116 60.000,75.051 58.563,77.304 56.808 C 83.278 52.152,83.487 52.000,83.943 52.000 C 84.173 52.000,84.504 51.774,84.680 51.499 C 85.038 50.939,88.085 48.800,88.526 48.800 C 88.681 48.800,89.705 48.170,90.800 47.400 C 91.895 46.630,92.946 46.000,93.134 46.000 C 93.322 46.000,93.802 45.640,94.200 45.200 C 94.598 44.760,95.142 44.400,95.408 44.400 C 95.674 44.400,96.336 44.051,96.878 43.625 C 97.420 43.198,98.344 42.729,98.932 42.581 C 99.519 42.434,100.000 42.180,100.000 42.017 C 100.000 41.855,100.675 41.425,101.500 41.063 C 102.325 40.701,104.080 39.850,105.400 39.173 C 106.720 38.495,108.610 37.572,109.600 37.121 C 110.590 36.671,112.066 35.965,112.879 35.551 C 113.693 35.138,114.616 34.800,114.930 34.800 C 115.245 34.800,115.717 34.542,115.979 34.226 C 116.241 33.910,117.028 33.532,117.728 33.386 C 118.427 33.241,119.363 32.893,119.806 32.613 C 120.249 32.334,121.239 31.974,122.006 31.813 C 122.773 31.653,123.763 31.293,124.206 31.013 C 124.649 30.734,125.639 30.374,126.406 30.213 C 127.173 30.053,128.160 29.697,128.600 29.423 C 129.040 29.149,130.178 28.803,131.128 28.653 C 132.079 28.504,133.249 28.135,133.728 27.834 C 134.208 27.533,135.498 27.160,136.595 27.005 C 137.692 26.850,139.042 26.491,139.595 26.208 C 140.148 25.925,141.586 25.560,142.792 25.397 C 143.997 25.233,145.685 24.852,146.542 24.550 C 147.399 24.247,148.753 23.992,149.550 23.982 C 150.348 23.973,151.720 23.683,152.600 23.338 C 153.480 22.993,156.090 22.548,158.400 22.349 C 160.710 22.150,163.950 21.707,165.600 21.364 C 169.323 20.589,198.864 20.459,202.200 21.202 C 203.300 21.448,206.180 21.823,208.600 22.038 C 211.020 22.252,213.824 22.687,214.831 23.005 C 215.837 23.323,217.844 23.751,219.290 23.956 C 220.735 24.161,222.252 24.500,222.659 24.710 C 223.067 24.921,224.373 25.217,225.563 25.368 C 226.752 25.520,228.199 25.889,228.778 26.189 C 229.357 26.488,230.724 26.914,231.815 27.135 C 233.793 27.535,236.658 28.459,239.068 29.474 C 239.766 29.767,240.886 30.117,241.559 30.252 C 242.232 30.386,242.988 30.745,243.240 31.048 C 243.492 31.352,244.061 31.600,244.505 31.600 C 244.949 31.600,246.142 31.980,247.156 32.443 C 249.341 33.443,251.811 34.552,253.200 35.158 C 253.750 35.398,254.470 35.765,254.800 35.974 C 255.130 36.184,256.795 37.012,258.499 37.815 C 260.204 38.618,262.184 39.665,262.899 40.141 C 263.615 40.618,264.650 41.233,265.200 41.508 C 265.750 41.783,266.740 42.367,267.400 42.805 C 268.060 43.243,269.185 43.874,269.900 44.206 C 270.615 44.539,271.200 44.976,271.200 45.178 C 271.200 45.381,271.594 45.671,272.077 45.824 C 272.559 45.977,273.803 46.754,274.841 47.551 C 275.879 48.348,278.118 49.979,279.816 51.176 C 282.972 53.401,283.406 53.749,286.702 56.698 C 287.746 57.632,288.819 58.397,289.086 58.398 C 289.353 58.399,289.765 58.760,290.000 59.200 C 290.235 59.640,290.692 60.000,291.014 60.000 C 291.336 60.000,291.600 60.276,291.600 60.613 C 291.600 60.949,291.905 61.342,292.277 61.485 C 292.649 61.628,293.684 62.551,294.577 63.537 C 296.580 65.749,297.146 66.322,298.629 67.642 C 299.983 68.847,303.421 72.681,305.218 74.989 C 305.898 75.863,307.242 77.483,308.204 78.589 C 310.047 80.709,310.589 81.436,313.793 86.099 C 314.889 87.695,316.014 89.144,316.293 89.320 C 316.572 89.496,316.800 89.803,316.800 90.002 C 316.800 90.201,317.520 91.392,318.400 92.649 C 319.280 93.905,320.000 95.173,320.000 95.466 C 320.000 95.760,320.158 96.000,320.351 96.000 C 320.545 96.000,320.933 96.585,321.213 97.300 C 321.494 98.015,321.921 98.783,322.162 99.007 C 322.717 99.522,323.775 101.365,324.627 103.300 C 324.990 104.125,325.447 104.800,325.643 104.800 C 325.840 104.800,326.000 105.136,326.000 105.546 C 326.000 105.956,326.349 106.736,326.775 107.278 C 327.202 107.820,327.669 108.737,327.814 109.315 C 327.960 109.894,328.331 110.577,328.639 110.833 C 328.948 111.089,329.200 111.566,329.200 111.895 C 329.200 112.223,329.531 113.146,329.935 113.946 C 331.033 116.118,332.211 118.736,333.200 121.200 C 333.685 122.410,334.346 123.955,334.668 124.633 C 334.991 125.312,335.413 126.482,335.608 127.233 C 336.014 128.804,337.456 133.019,337.991 134.200 C 338.190 134.640,338.472 135.630,338.616 136.400 C 338.760 137.170,339.115 138.175,339.405 138.633 C 339.694 139.092,340.060 140.352,340.217 141.433 C 340.375 142.515,340.751 143.886,341.052 144.480 C 341.353 145.074,341.600 146.105,341.600 146.772 C 341.600 147.438,341.944 149.112,342.365 150.492 C 343.291 153.524,344.340 158.208,344.764 161.200 C 347.633 181.447,347.723 183.397,347.895 229.278 L 348.045 269.555 346.723 269.782 C 345.995 269.907,339.820 269.962,333.000 269.904 L 320.600 269.800 320.337 265.200 C 320.193 262.670,320.061 245.120,320.045 226.200 C 320.017 194.153,319.692 180.770,318.805 175.200 C 318.612 173.990,318.171 171.110,317.824 168.800 C 317.477 166.490,317.028 164.150,316.825 163.600 C 316.623 163.050,316.270 161.455,316.041 160.056 C 315.812 158.656,315.459 157.306,315.257 157.056 C 315.055 156.805,314.762 155.610,314.607 154.400 C 314.451 153.190,314.099 151.840,313.825 151.400 C 313.550 150.960,313.198 149.790,313.042 148.800 C 312.887 147.810,312.521 146.636,312.230 146.191 C 311.939 145.746,311.574 144.632,311.419 143.714 C 311.264 142.797,310.882 141.834,310.569 141.574 C 310.256 141.314,310.000 140.712,310.000 140.236 C 310.000 139.759,309.640 138.663,309.200 137.800 C 308.760 136.937,308.400 135.990,308.400 135.695 C 308.400 135.400,308.056 134.493,307.635 133.679 C 307.214 132.866,306.383 131.120,305.788 129.800 C 303.800 125.392,301.841 121.406,301.364 120.800 C 301.104 120.470,300.362 119.210,299.715 118.000 C 297.787 114.392,296.188 111.875,295.100 110.734 C 294.715 110.330,294.400 109.764,294.400 109.475 C 294.400 109.187,294.040 108.564,293.600 108.092 C 293.160 107.620,292.800 107.124,292.800 106.990 C 292.800 106.856,291.993 105.723,291.006 104.473 C 290.020 103.223,288.895 101.781,288.506 101.268 C 288.118 100.755,287.607 100.125,287.372 99.868 C 287.136 99.611,285.704 97.870,284.189 96.000 C 280.575 91.540,269.610 80.800,268.669 80.800 C 268.536 80.800,267.833 80.215,267.108 79.500 C 266.383 78.785,264.982 77.669,263.995 77.021 C 263.008 76.372,262.020 75.646,261.800 75.406 C 261.177 74.728,252.081 68.811,251.070 68.427 C 250.573 68.238,249.927 67.795,249.635 67.442 C 249.342 67.089,248.775 66.800,248.375 66.800 C 247.975 66.800,247.525 66.602,247.375 66.359 C 247.225 66.117,246.539 65.664,245.851 65.353 C 245.163 65.042,244.330 64.622,244.000 64.418 C 242.874 63.724,238.705 62.000,238.152 62.000 C 237.848 62.000,237.600 61.827,237.600 61.616 C 237.600 61.405,236.835 61.013,235.900 60.746 C 234.965 60.479,234.001 60.111,233.757 59.928 C 233.305 59.590,230.031 58.400,226.800 57.399 C 225.810 57.093,224.100 56.554,223.000 56.202 C 221.900 55.851,220.397 55.373,219.660 55.141 C 218.924 54.909,217.034 54.482,215.460 54.191 C 213.887 53.901,211.610 53.470,210.400 53.233 C 199.729 51.147,198.875 51.065,186.000 50.895 C 173.492 50.730,170.517 50.893,162.400 52.190 C 153.676 53.585,143.290 55.912,142.306 56.694 C 142.028 56.915,141.086 57.225,140.214 57.382 C 139.341 57.540,138.135 57.923,137.534 58.234 C 136.932 58.545,136.109 58.800,135.704 58.800 C 135.300 58.800,134.263 59.160,133.400 59.600 C 132.537 60.040,131.656 60.400,131.442 60.400 C 131.071 60.400,129.305 61.148,125.800 62.790 C 124.920 63.202,123.750 63.665,123.200 63.819 C 122.650 63.972,121.999 64.258,121.754 64.453 C 121.509 64.648,119.619 65.670,117.554 66.724 C 113.774 68.654,111.365 70.035,110.569 70.727 C 110.332 70.933,109.748 71.226,109.272 71.377 C 108.795 71.529,108.179 71.868,107.902 72.131 C 107.135 72.863,105.127 74.142,103.900 74.679 C 103.295 74.944,102.800 75.331,102.800 75.537 C 102.800 75.744,102.395 76.019,101.900 76.148 C 101.405 76.276,100.315 77.016,99.478 77.791 C 98.640 78.566,97.793 79.200,97.593 79.200 C 97.394 79.200,96.909 79.529,96.516 79.932 C 96.122 80.335,94.360 81.832,92.600 83.260 C 90.840 84.688,88.781 86.383,88.024 87.028 C 85.591 89.100,76.000 98.779,76.000 99.163 C 76.000 99.366,75.830 99.593,75.622 99.667 C 75.030 99.875,66.038 111.266,65.492 112.499 C 65.224 113.104,64.899 113.600,64.770 113.600 C 64.433 113.600,62.000 117.426,62.000 117.956 C 62.000 118.200,61.811 118.400,61.581 118.400 C 61.350 118.400,60.945 118.895,60.680 119.500 C 60.415 120.105,59.564 121.590,58.789 122.800 C 58.014 124.010,56.934 125.895,56.390 126.990 C 55.845 128.084,55.190 129.207,54.933 129.486 C 54.676 129.764,54.349 130.521,54.207 131.168 C 54.065 131.815,53.690 132.559,53.374 132.821 C 53.058 133.083,52.800 133.464,52.800 133.667 C 52.800 133.871,52.175 135.371,51.412 137.002 C 50.648 138.633,49.907 140.470,49.764 141.084 C 49.621 141.698,49.293 142.560,49.035 143.000 C 48.385 144.107,46.676 148.803,45.614 152.400 C 45.127 154.050,44.543 155.940,44.316 156.600 C 44.090 157.260,43.680 158.803,43.405 160.028 C 43.130 161.254,42.714 162.613,42.481 163.048 C 42.248 163.483,41.865 165.360,41.629 167.220 C 41.393 169.079,40.937 171.950,40.616 173.600 C 40.295 175.250,40.018 177.410,40.002 178.400 C 39.985 179.390,39.711 181.280,39.392 182.600 C 38.544 186.112,38.550 208.473,39.400 211.735 C 39.730 213.002,40.006 214.885,40.014 215.920 C 40.022 216.954,40.300 219.240,40.632 221.000 C 40.964 222.760,41.418 225.550,41.640 227.200 C 41.862 228.850,42.276 230.560,42.561 231.000 C 42.845 231.440,43.206 232.790,43.363 234.000 C 43.519 235.210,43.879 236.560,44.161 237.000 C 44.444 237.440,44.791 238.541,44.934 239.447 C 45.076 240.353,45.463 241.613,45.794 242.247 C 46.124 242.881,46.396 243.722,46.398 244.116 C 46.399 244.510,46.760 245.538,47.200 246.400 C 47.640 247.262,48.000 248.203,48.000 248.490 C 48.000 248.777,48.360 249.684,48.800 250.504 C 49.240 251.325,49.600 252.203,49.600 252.455 C 49.600 253.002,50.244 254.432,53.812 261.800 C 55.303 264.880,56.630 267.490,56.761 267.600 C 57.119 267.899,58.321 270.050,58.830 271.300 C 59.077 271.905,59.438 272.400,59.634 272.400 C 59.829 272.400,60.269 272.985,60.610 273.700 C 61.743 276.073,62.587 277.456,63.900 279.094 C 64.615 279.986,65.200 280.834,65.200 280.979 C 65.200 281.343,69.142 286.641,71.258 289.119 C 72.216 290.242,73.360 291.637,73.800 292.219 C 74.240 292.801,75.635 294.363,76.900 295.689 C 78.165 297.015,79.200 298.172,79.200 298.259 C 79.200 298.727,88.415 307.220,91.839 309.907 C 93.181 310.960,94.561 312.087,94.907 312.411 C 95.253 312.735,96.005 313.360,96.578 313.800 C 97.151 314.240,97.841 314.780,98.110 315.000 C 99.505 316.139,101.577 317.600,101.797 317.600 C 101.934 317.600,102.711 318.125,103.523 318.767 C 104.336 319.410,105.630 320.305,106.400 320.757 C 107.170 321.209,108.430 321.949,109.200 322.401 C 109.970 322.853,111.140 323.576,111.800 324.007 C 112.460 324.438,113.450 325.011,114.000 325.280 C 114.550 325.548,115.429 326.090,115.954 326.484 C 116.479 326.878,117.170 327.200,117.491 327.200 C 117.811 327.200,118.531 327.560,119.091 328.000 C 119.650 328.440,120.444 328.800,120.854 328.800 C 121.264 328.800,121.600 328.966,121.600 329.169 C 121.600 329.372,122.271 329.759,123.090 330.030 C 123.910 330.300,125.125 330.854,125.790 331.259 C 126.456 331.665,127.293 331.998,127.651 331.999 C 128.009 331.999,128.526 332.270,128.800 332.600 C 129.074 332.930,129.684 333.200,130.155 333.200 C 130.626 333.200,131.684 333.560,132.504 334.000 C 133.325 334.440,134.313 334.801,134.699 334.802 C 135.084 334.804,135.940 335.089,136.600 335.437 C 139.092 336.750,149.701 339.754,156.911 341.188 C 159.062 341.616,160.996 342.074,161.209 342.205 C 161.422 342.337,163.802 342.602,166.498 342.794 C 169.194 342.986,172.300 343.325,173.400 343.548 C 175.981 344.070,195.184 344.075,197.800 343.554 C 198.900 343.335,202.050 343.013,204.800 342.837 C 209.767 342.520,215.019 341.723,220.000 340.531 C 221.430 340.189,223.500 339.763,224.600 339.583 C 225.700 339.404,227.500 338.992,228.600 338.667 C 229.700 338.342,231.451 337.959,232.491 337.815 C 233.531 337.671,234.476 337.400,234.593 337.212 C 234.709 337.024,235.568 336.747,236.502 336.596 C 237.436 336.446,238.562 336.095,239.004 335.815 C 239.446 335.536,240.710 335.114,241.812 334.878 C 242.914 334.641,244.353 334.168,245.008 333.826 C 245.664 333.485,246.516 333.204,246.901 333.202 C 247.287 333.201,248.275 332.840,249.096 332.400 C 249.916 331.960,250.884 331.600,251.245 331.600 C 251.606 331.600,252.126 331.330,252.400 331.000 C 252.674 330.670,253.089 330.400,253.323 330.400 C 253.556 330.400,254.479 330.064,255.374 329.652 C 256.268 329.241,257.585 328.679,258.300 328.404 C 259.015 328.128,259.600 327.745,259.600 327.551 C 259.600 327.358,259.920 327.200,260.311 327.200 C 260.702 327.200,261.419 326.922,261.903 326.583 C 262.388 326.243,263.785 325.439,265.008 324.796 C 266.230 324.153,267.506 323.351,267.844 323.013 C 268.181 322.676,268.686 322.400,268.967 322.400 C 269.247 322.400,269.802 322.040,270.200 321.600 C 270.598 321.160,271.172 320.800,271.475 320.800 C 271.777 320.800,272.129 320.530,272.255 320.200 C 272.382 319.870,272.691 319.599,272.943 319.598 C 273.194 319.597,274.292 318.787,275.383 317.798 C 276.474 316.809,277.496 316.000,277.655 316.000 C 277.813 316.000,278.181 315.775,278.471 315.500 C 279.409 314.613,282.230 312.800,282.673 312.800 C 282.909 312.800,283.307 312.552,283.559 312.250 C 283.810 311.947,284.719 311.587,285.579 311.450 C 286.439 311.312,287.387 310.956,287.685 310.658 C 287.982 310.361,289.051 309.993,290.059 309.842 C 291.067 309.691,292.231 309.310,292.646 308.996 C 293.064 308.679,294.312 308.420,295.450 308.413 C 296.577 308.406,298.287 308.085,299.250 307.700 C 301.490 306.804,349.201 306.602,349.496 307.487 C 349.585 307.755,350.263 308.088,351.001 308.227 C 351.740 308.365,352.433 308.708,352.540 308.988 C 352.647 309.268,353.231 309.621,353.836 309.773 C 354.442 309.925,355.380 310.398,355.922 310.825 C 356.464 311.251,357.154 311.600,357.454 311.600 C 357.754 311.600,358.000 311.758,358.000 311.951 C 358.000 312.145,358.540 312.527,359.200 312.800 C 359.860 313.073,360.400 313.453,360.400 313.643 C 360.400 313.834,360.985 314.234,361.700 314.533 C 362.415 314.832,363.247 315.374,363.549 315.738 C 363.851 316.102,364.346 316.400,364.649 316.400 C 364.952 316.400,365.200 316.554,365.200 316.742 C 365.200 316.930,366.290 317.849,367.622 318.783 C 368.954 319.717,370.905 321.318,371.958 322.341 C 373.011 323.363,374.801 325.062,375.936 326.116 C 377.071 327.170,378.000 328.205,378.000 328.416 C 378.000 328.627,378.270 328.800,378.600 328.800 C 378.930 328.800,379.200 329.061,379.200 329.380 C 379.200 329.699,379.429 330.104,379.708 330.280 C 380.522 330.792,384.000 334.945,384.000 335.404 C 384.000 335.634,384.315 336.112,384.700 336.466 C 386.733 338.334,391.167 345.392,393.259 350.087 C 393.728 351.141,393.078 351.248,391.466 350.384 C 390.661 349.953,389.777 349.600,389.501 349.601 C 389.226 349.602,388.280 349.247,387.400 348.812 C 382.910 346.596,378.698 344.800,377.992 344.800 C 377.557 344.800,377.200 344.634,377.200 344.431 C 377.200 344.228,376.525 343.850,375.700 343.591 C 374.875 343.332,373.468 342.778,372.574 342.360 C 371.679 341.942,370.680 341.600,370.354 341.600 C 370.027 341.600,369.571 341.411,369.339 341.179 C 369.108 340.948,368.037 340.510,366.959 340.205 C 365.050 339.665,361.812 338.589,360.200 337.959 C 358.753 337.393,352.657 335.920,349.600 335.397 C 347.950 335.114,345.610 334.691,344.400 334.456 C 333.664 332.373,312.850 332.463,305.400 334.625 C 304.300 334.944,302.680 335.375,301.800 335.583 C 297.688 336.554,291.664 339.085,287.000 341.802 C 286.120 342.315,284.815 343.040,284.100 343.413 C 283.385 343.786,282.800 344.251,282.800 344.446 C 282.800 344.641,282.617 344.800,282.394 344.800 C 282.025 344.800,280.049 345.886,276.064 348.279 C 275.259 348.763,274.150 349.353,273.600 349.591 C 272.071 350.252,271.889 350.350,270.600 351.200 C 269.940 351.635,268.950 352.193,268.400 352.438 C 267.850 352.684,267.130 353.047,266.800 353.244 C 266.470 353.441,265.750 353.781,265.200 354.001 C 264.650 354.220,263.930 354.581,263.600 354.802 C 263.270 355.024,262.730 355.315,262.400 355.448 C 262.070 355.582,260.360 356.374,258.600 357.208 C 256.840 358.043,254.728 358.935,253.906 359.192 C 253.084 359.448,252.321 359.805,252.210 359.984 C 252.099 360.163,251.395 360.424,250.645 360.565 C 249.894 360.706,249.060 361.086,248.791 361.411 C 248.522 361.735,247.919 362.001,247.451 362.002 C 246.983 362.004,246.150 362.238,245.600 362.523 C 245.050 362.808,242.710 363.637,240.400 364.365 C 238.090 365.093,235.633 365.939,234.940 366.245 C 234.246 366.550,233.305 366.800,232.848 366.800 C 232.390 366.800,231.338 367.057,230.508 367.372 C 229.049 367.925,223.569 369.293,217.800 370.543 C 216.260 370.877,213.830 371.266,212.400 371.407 C 210.970 371.548,208.900 371.916,207.800 372.225 C 201.225 374.071,169.653 374.060,161.200 372.209 C 159.770 371.896,157.520 371.529,156.200 371.393 C 154.004 371.168,152.292 370.845,146.600 369.586 C 140.454 368.226,139.266 367.926,137.892 367.389 C 137.062 367.065,136.010 366.800,135.552 366.800 C 135.095 366.800,134.154 366.536,133.460 366.214 C 132.767 365.892,131.480 365.453,130.600 365.239 C 129.720 365.025,127.740 364.369,126.200 363.782 C 124.660 363.195,122.660 362.506,121.756 362.252 C 120.852 361.998,119.844 361.569,119.518 361.298 C 119.191 361.027,118.360 360.692,117.671 360.554 C 116.982 360.416,116.216 360.060,115.969 359.762 C 115.722 359.465,114.863 359.104,114.060 358.960 C 113.257 358.816,112.330 358.465,112.000 358.180 C 111.670 357.896,110.912 357.541,110.316 357.392 C 109.720 357.243,109.033 356.881,108.789 356.586 C 108.545 356.292,107.819 355.936,107.177 355.795 C 106.535 355.654,105.925 355.403,105.822 355.236 C 105.720 355.070,103.737 353.959,101.416 352.767 C 96.678 350.334,95.524 349.706,93.800 348.622 C 91.870 347.408,88.694 345.377,87.444 344.558 C 86.808 344.141,85.998 343.620,85.644 343.400 C 85.290 343.180,84.280 342.453,83.400 341.786 C 82.520 341.118,81.342 340.283,80.782 339.930 C 80.222 339.577,78.602 338.366,77.182 337.237 C 75.762 336.109,73.978 334.694,73.219 334.093 C 72.459 333.492,71.460 332.640,71.000 332.200 C 70.540 331.760,69.091 330.500,67.781 329.400 C 66.472 328.300,65.165 327.085,64.877 326.700 C 64.590 326.315,64.204 326.000,64.020 326.000 C 63.546 326.000,57.411 319.861,55.026 317.000 C 52.571 314.056,50.430 311.671,49.500 310.844 C 49.115 310.502,48.800 310.088,48.800 309.924 C 48.800 309.761,48.170 308.997,47.400 308.227 C 46.630 307.457,46.000 306.686,45.999 306.513 C 45.999 306.341,45.448 305.570,44.776 304.800 C 44.103 304.030,42.927 302.472,42.162 301.337 C 41.397 300.203,40.508 299.056,40.186 298.788 C 39.864 298.521,39.600 298.148,39.600 297.959 C 39.600 297.771,38.881 296.668,38.002 295.508 C 37.123 294.349,36.403 293.278,36.402 293.128 C 36.400 292.894,35.758 291.845,32.892 287.390 C 32.613 286.955,32.105 286.060,31.764 285.400 C 31.424 284.740,30.713 283.480,30.185 282.600 C 29.657 281.720,28.930 280.325,28.569 279.500 C 28.208 278.675,27.775 278.000,27.607 278.000 C 27.438 278.000,27.196 277.482,27.070 276.848 C 26.943 276.215,26.560 275.418,26.220 275.077 C 25.879 274.736,25.600 274.244,25.600 273.983 C 25.600 273.722,25.271 272.854,24.869 272.054 C 24.466 271.255,23.733 269.700,23.238 268.600 C 22.744 267.500,21.993 265.934,21.570 265.121 C 21.146 264.307,20.800 263.312,20.800 262.910 C 20.800 262.507,20.536 261.801,20.214 261.341 C 19.891 260.881,19.452 259.805,19.239 258.952 C 19.025 258.098,18.374 256.140,17.792 254.600 C 17.210 253.060,16.552 251.080,16.331 250.200 C 16.109 249.320,15.676 248.060,15.369 247.400 C 15.061 246.740,14.629 245.140,14.408 243.845 C 14.188 242.550,13.845 241.290,13.648 241.045 C 13.451 240.800,13.163 239.610,13.007 238.400 C 12.852 237.190,12.472 235.677,12.163 235.039 C 11.853 234.400,11.600 233.134,11.600 232.226 C 11.600 231.317,11.316 229.590,10.970 228.387 C 10.623 227.184,10.089 223.860,9.783 221.000 C 9.064 214.294,8.495 211.900,8.452 215.400 C 8.427 217.450,9.394 224.338,10.758 231.820 C 12.445 241.071,17.623 257.788,21.407 266.200 C 21.704 266.860,22.604 268.930,23.408 270.800 C 24.834 274.120,28.416 281.204,29.679 283.200 C 30.583 284.630,32.307 287.629,32.896 288.799 C 33.394 289.785,38.538 297.554,41.218 301.366 C 42.754 303.550,48.849 311.237,49.916 312.336 C 50.292 312.724,51.495 314.111,52.588 315.420 C 58.817 322.876,71.279 333.991,82.388 342.000 C 101.357 355.675,126.683 366.653,149.200 370.962 C 167.834 374.527,187.503 375.678,200.000 373.933 C 201.650 373.703,204.440 373.367,206.200 373.187 C 213.323 372.460,228.856 369.165,232.777 367.550 C 233.314 367.328,234.484 366.991,235.377 366.799 C 237.223 366.404,240.425 365.366,242.200 364.588 C 242.860 364.298,243.940 363.931,244.600 363.771 C 245.260 363.611,246.155 363.237,246.589 362.940 C 247.023 362.643,247.653 362.394,247.989 362.386 C 248.325 362.379,249.320 362.025,250.200 361.600 C 251.080 361.175,251.953 360.821,252.140 360.814 C 252.564 360.797,253.657 360.304,262.600 356.100 C 266.560 354.239,270.070 352.485,270.400 352.202 C 270.730 351.919,272.170 351.122,273.600 350.430 C 275.763 349.383,279.919 346.987,286.060 343.246 C 289.740 341.004,291.374 340.193,296.600 338.010 C 306.311 333.953,324.362 332.534,339.499 334.637 C 341.865 334.965,345.032 335.404,346.537 335.611 C 349.741 336.052,361.941 339.059,362.569 339.562 C 362.806 339.752,363.629 340.042,364.398 340.207 C 365.168 340.372,366.338 340.732,366.998 341.007 C 367.659 341.283,369.280 341.918,370.600 342.420 C 371.920 342.921,373.900 343.720,375.000 344.196 C 376.100 344.671,377.810 345.393,378.800 345.799 C 379.790 346.206,382.280 347.318,384.332 348.269 C 386.385 349.221,388.220 350.000,388.410 350.000 C 388.600 350.000,390.116 350.620,391.778 351.377 L 394.800 352.754 394.800 351.601 C 394.800 350.966,394.652 350.356,394.472 350.245 C 394.292 350.133,393.456 348.727,392.615 347.121 C 391.245 344.504,387.779 338.837,386.913 337.800 C 386.730 337.580,385.695 336.230,384.614 334.800 C 377.811 325.804,363.290 313.303,355.567 309.794 C 354.815 309.452,353.210 308.622,352.000 307.949 C 347.838 305.633,311.786 304.854,300.000 306.826 C 289.243 308.626,283.000 311.043,276.799 315.810 C 269.187 321.662,261.213 326.478,254.600 329.217 C 254.160 329.399,252.900 329.931,251.800 330.399 C 248.129 331.959,245.027 333.095,242.000 333.987 C 240.350 334.473,238.370 335.127,237.600 335.441 C 235.162 336.433,230.672 337.546,223.200 339.012 C 221.330 339.379,218.900 339.923,217.800 340.221 C 204.004 343.960,169.953 343.944,155.600 340.192 C 152.593 339.406,148.641 338.417,146.000 337.789 C 143.570 337.211,140.455 336.197,136.200 334.598 C 134.660 334.019,132.950 333.396,132.400 333.213 C 131.401 332.880,129.349 332.000,125.200 330.123 C 120.654 328.067,112.582 323.857,111.600 323.030 C 111.270 322.752,109.946 321.911,108.657 321.162 C 105.186 319.144,103.609 318.071,98.200 314.044 C 96.000 312.406,94.020 310.864,93.800 310.617 C 93.580 310.369,92.140 309.158,90.600 307.924 C 85.819 304.093,78.643 296.891,74.400 291.666 C 73.630 290.718,72.488 289.370,71.862 288.671 C 71.235 287.972,70.175 286.590,69.506 285.600 C 68.836 284.610,68.089 283.620,67.844 283.400 C 67.287 282.898,61.090 273.661,60.747 272.820 C 60.608 272.479,59.840 271.211,59.042 270.002 C 55.575 264.752,48.522 248.742,46.089 240.600 C 44.637 235.741,43.682 232.247,43.412 230.800 C 43.268 230.030,42.980 228.950,42.773 228.400 C 42.401 227.416,41.859 224.090,40.524 214.600 C 39.598 208.014,39.606 186.793,40.538 179.800 C 41.983 168.956,42.458 166.366,44.026 160.800 C 46.411 152.335,47.013 150.347,47.902 148.000 C 48.445 146.570,49.211 144.500,49.606 143.400 C 51.339 138.572,55.487 130.012,58.860 124.298 C 60.257 121.932,61.760 119.379,62.200 118.624 C 62.993 117.264,66.015 112.785,66.400 112.400 C 66.510 112.290,66.780 111.896,67.000 111.524 C 71.530 103.872,94.582 80.597,98.900 79.315 C 99.285 79.200,99.600 78.978,99.600 78.821 C 99.600 78.663,100.545 77.925,101.700 77.181 C 102.855 76.436,103.980 75.687,104.200 75.517 C 104.959 74.929,110.106 71.600,110.256 71.600 C 110.339 71.600,112.070 70.642,114.103 69.470 C 118.126 67.153,123.114 64.699,127.200 63.028 C 128.630 62.443,130.160 61.802,130.600 61.603 C 138.670 57.961,153.449 54.098,164.200 52.821 C 165.740 52.638,167.900 52.267,169.000 51.998 C 172.236 51.206,194.974 51.321,198.800 52.150 C 200.450 52.507,202.314 52.799,202.942 52.800 C 204.242 52.800,210.778 53.989,216.400 55.249 C 220.262 56.114,227.685 58.431,232.400 60.243 C 235.368 61.384,235.361 61.381,240.200 63.619 C 242.180 64.535,244.160 65.445,244.600 65.641 C 245.040 65.837,245.670 66.169,246.000 66.377 C 246.330 66.586,247.950 67.508,249.600 68.427 C 252.140 69.842,257.220 73.047,258.600 74.105 C 258.820 74.273,259.720 74.879,260.600 75.452 C 266.625 79.369,279.090 90.847,284.411 97.377 C 289.797 103.987,296.081 112.737,297.499 115.600 C 297.771 116.150,298.169 116.870,298.384 117.200 C 301.010 121.248,308.396 136.466,308.401 137.841 C 308.402 138.039,308.962 139.550,309.645 141.200 C 310.329 142.850,311.151 145.100,311.472 146.200 C 315.284 159.258,316.471 164.670,318.271 177.200 C 318.920 181.724,318.999 186.355,319.099 225.800 L 319.210 269.400 320.058 270.107 C 321.180 271.043,347.204 271.160,347.973 270.232 C 348.958 269.045,348.408 178.718,347.392 175.000 C 347.272 174.560,346.925 171.950,346.620 169.200 C 345.955 163.209,345.017 157.407,344.225 154.400 C 343.907 153.190,343.077 149.770,342.382 146.800 C 339.246 133.411,331.805 114.236,325.337 102.875 C 321.298 95.780,318.294 91.011,314.582 85.800 C 313.799 84.700,312.853 83.350,312.479 82.800 C 312.106 82.250,311.582 81.530,311.316 81.200 C 311.050 80.870,310.240 79.860,309.516 78.956 C 304.094 72.184,294.038 61.613,289.694 58.121 C 288.654 57.284,286.511 55.520,284.933 54.200 C 280.590 50.568,271.105 43.847,268.400 42.486 C 267.850 42.209,266.230 41.263,264.800 40.383 C 260.682 37.849,250.944 33.162,245.200 30.949 C 243.770 30.398,241.970 29.699,241.200 29.397 C 240.430 29.094,239.350 28.726,238.800 28.579 C 238.250 28.431,237.260 28.081,236.600 27.800 C 232.824 26.191,219.475 23.000,210.000 21.442 C 204.105 20.473,184.304 19.448,179.000 19.838 " stroke="none" fill="#2684c5" fill-rule="evenodd"></path><path id="path3" d="M173.000 19.161 C 169.260 19.308,166.007 19.548,165.772 19.693 C 165.537 19.839,163.377 20.156,160.972 20.397 C 153.349 21.163,139.618 24.215,130.600 27.146 C 122.223 29.870,115.728 32.414,108.655 35.743 C 106.485 36.764,104.646 37.600,104.569 37.600 C 104.492 37.600,102.714 38.590,100.618 39.800 C 98.522 41.010,96.712 42.000,96.595 42.000 C 96.478 42.000,95.622 42.481,94.691 43.068 C 93.761 43.655,92.370 44.528,91.600 45.008 C 87.813 47.367,79.574 52.981,77.800 54.410 C 76.700 55.297,74.720 56.844,73.400 57.847 C 65.442 63.899,51.664 77.640,45.661 85.513 C 44.417 87.144,42.815 89.225,42.100 90.139 C 41.385 91.053,39.590 93.600,38.110 95.800 C 36.630 98.000,35.316 99.890,35.189 100.000 C 34.888 100.262,32.807 103.681,30.103 108.357 C 27.615 112.658,22.806 122.166,21.659 125.051 C 21.233 126.123,20.131 128.800,19.210 131.000 C 6.235 162.003,2.953 203.998,10.958 236.600 C 11.282 237.920,11.902 240.530,12.335 242.400 C 15.010 253.945,22.491 272.298,29.454 284.400 C 30.909 286.930,32.483 289.667,32.950 290.482 C 34.679 293.495,38.573 299.122,43.522 305.755 C 45.715 308.694,52.936 317.167,56.800 321.335 C 60.872 325.727,74.535 337.480,80.525 341.745 C 88.774 347.617,96.811 352.426,105.800 356.868 C 108.880 358.390,111.690 359.793,112.044 359.986 C 117.421 362.916,136.961 369.282,147.000 371.374 C 148.760 371.741,151.370 372.284,152.800 372.581 C 154.230 372.878,157.020 373.332,159.000 373.591 C 160.980 373.850,162.960 374.143,163.400 374.242 C 172.322 376.254,203.711 375.267,216.000 372.589 C 217.430 372.277,220.400 371.635,222.600 371.162 C 238.359 367.772,263.134 357.958,277.000 349.613 C 278.100 348.951,281.070 347.150,283.600 345.610 C 293.416 339.638,298.773 337.622,311.400 335.148 C 314.812 334.480,332.137 334.516,337.000 335.201 C 345.941 336.462,353.348 337.765,356.400 338.615 C 360.788 339.837,371.307 343.428,372.875 344.239 C 373.543 344.584,375.734 345.539,377.744 346.362 C 379.755 347.184,384.417 349.168,388.104 350.770 C 396.423 354.384,397.214 354.246,394.937 349.579 C 390.232 339.932,383.164 330.640,374.461 322.659 C 370.965 319.453,362.004 312.400,361.427 312.400 C 361.298 312.400,360.339 311.805,359.296 311.077 C 351.439 305.594,349.672 305.279,324.770 304.932 C 308.175 304.700,301.719 305.201,293.000 307.398 C 288.475 308.538,281.832 311.038,281.153 311.856 C 280.905 312.155,280.552 312.400,280.369 312.400 C 279.910 312.400,277.999 313.730,273.996 316.834 C 266.358 322.759,259.680 326.388,247.400 331.290 C 242.653 333.185,231.857 336.363,226.009 337.587 C 223.914 338.025,220.940 338.654,219.400 338.984 C 181.682 347.069,141.807 340.640,110.600 321.442 C 105.384 318.233,100.374 314.895,100.000 314.381 C 99.890 314.229,99.060 313.587,98.155 312.953 C 91.639 308.385,80.141 297.582,74.910 291.112 C 73.540 289.418,72.156 287.709,71.835 287.316 C 69.757 284.767,68.298 282.851,67.695 281.880 C 67.313 281.264,66.091 279.464,64.979 277.880 C 53.257 261.171,43.701 235.887,41.591 216.000 C 41.392 214.130,41.041 210.980,40.810 209.000 C 40.390 205.407,40.503 184.005,40.945 183.290 C 41.070 183.087,41.351 181.049,41.570 178.761 C 42.386 170.209,46.300 153.990,49.379 146.400 C 49.691 145.630,50.425 143.740,51.011 142.200 C 52.379 138.599,58.143 126.799,59.803 124.200 C 60.506 123.100,61.771 121.030,62.614 119.600 C 63.456 118.170,64.481 116.550,64.891 116.000 C 65.300 115.450,66.662 113.530,67.918 111.734 C 73.442 103.827,85.296 90.781,90.291 87.110 C 90.971 86.609,93.415 84.670,95.722 82.800 C 98.028 80.930,101.509 78.335,103.458 77.032 C 105.406 75.730,107.720 74.182,108.600 73.592 C 113.824 70.090,126.005 64.112,133.600 61.322 C 142.032 58.224,152.340 55.437,159.200 54.399 C 160.410 54.216,163.380 53.747,165.800 53.357 C 171.362 52.460,194.620 52.299,199.800 53.123 C 209.107 54.601,210.956 54.933,215.000 55.846 C 223.563 57.779,231.978 60.662,239.502 64.240 C 241.539 65.208,243.280 66.000,243.372 66.000 C 243.705 66.000,253.876 71.918,256.800 73.812 C 288.802 94.552,312.522 134.473,317.044 175.200 C 318.255 186.111,318.354 190.164,318.377 229.611 C 318.397 265.333,318.470 269.921,319.023 270.711 L 319.645 271.600 333.734 271.600 C 345.837 271.600,347.947 271.512,348.711 270.977 L 349.600 270.355 349.595 233.277 C 349.590 186.635,349.088 176.227,346.023 159.200 C 343.849 147.120,338.725 129.423,335.194 121.800 C 334.990 121.360,333.994 119.035,332.982 116.634 C 319.663 85.052,294.760 56.688,265.600 39.888 C 252.977 32.615,236.399 26.008,224.200 23.388 C 215.429 21.504,211.625 20.788,209.276 20.581 C 207.804 20.452,204.980 20.099,203.000 19.798 C 198.657 19.138,182.380 18.793,173.000 19.161 M199.800 20.423 C 206.329 20.825,210.840 21.444,217.600 22.866 C 227.071 24.858,233.793 26.604,236.600 27.800 C 237.260 28.081,238.250 28.431,238.800 28.579 C 239.350 28.726,240.430 29.094,241.200 29.397 C 241.970 29.699,243.770 30.398,245.200 30.949 C 250.944 33.162,260.682 37.849,264.800 40.383 C 266.230 41.263,267.850 42.209,268.400 42.486 C 271.105 43.847,280.590 50.568,284.933 54.200 C 286.511 55.520,288.654 57.284,289.694 58.121 C 294.038 61.613,304.094 72.184,309.516 78.956 C 310.240 79.860,311.050 80.870,311.316 81.200 C 311.582 81.530,312.106 82.250,312.479 82.800 C 312.853 83.350,313.799 84.700,314.582 85.800 C 318.294 91.011,321.298 95.780,325.337 102.875 C 331.805 114.236,339.246 133.411,342.382 146.800 C 343.077 149.770,343.907 153.190,344.225 154.400 C 345.017 157.407,345.955 163.209,346.620 169.200 C 346.925 171.950,347.272 174.560,347.392 175.000 C 348.408 178.718,348.958 269.045,347.973 270.232 C 347.204 271.160,321.180 271.043,320.058 270.107 L 319.210 269.400 319.099 225.800 C 318.999 186.355,318.920 181.724,318.271 177.200 C 316.471 164.670,315.284 159.258,311.472 146.200 C 311.151 145.100,310.329 142.850,309.645 141.200 C 308.962 139.550,308.402 138.039,308.401 137.841 C 308.396 136.466,301.010 121.248,298.384 117.200 C 298.169 116.870,297.771 116.150,297.499 115.600 C 296.081 112.737,289.797 103.987,284.411 97.377 C 279.090 90.847,266.625 79.369,260.600 75.452 C 259.720 74.879,258.820 74.273,258.600 74.105 C 257.220 73.047,252.140 69.842,249.600 68.427 C 247.950 67.508,246.330 66.586,246.000 66.377 C 245.670 66.169,245.040 65.837,244.600 65.641 C 244.160 65.445,242.180 64.535,240.200 63.619 C 235.361 61.381,235.368 61.384,232.400 60.243 C 227.685 58.431,220.262 56.114,216.400 55.249 C 210.778 53.989,204.242 52.800,202.942 52.800 C 202.314 52.799,200.450 52.507,198.800 52.150 C 194.974 51.321,172.236 51.206,169.000 51.998 C 167.900 52.267,165.740 52.638,164.200 52.821 C 153.449 54.098,138.670 57.961,130.600 61.603 C 130.160 61.802,128.630 62.443,127.200 63.028 C 123.114 64.699,118.126 67.153,114.103 69.470 C 112.070 70.642,110.339 71.600,110.256 71.600 C 110.106 71.600,104.959 74.929,104.200 75.517 C 103.980 75.687,102.855 76.436,101.700 77.181 C 100.545 77.925,99.600 78.663,99.600 78.821 C 99.600 78.978,99.285 79.200,98.900 79.315 C 94.582 80.597,71.530 103.872,67.000 111.524 C 66.780 111.896,66.510 112.290,66.400 112.400 C 66.015 112.785,62.993 117.264,62.200 118.624 C 61.760 119.379,60.257 121.932,58.860 124.298 C 55.487 130.012,51.339 138.572,49.606 143.400 C 49.211 144.500,48.445 146.570,47.902 148.000 C 47.013 150.347,46.411 152.335,44.026 160.800 C 42.458 166.366,41.983 168.956,40.538 179.800 C 39.606 186.793,39.598 208.014,40.524 214.600 C 41.859 224.090,42.401 227.416,42.773 228.400 C 42.980 228.950,43.268 230.030,43.412 230.800 C 43.682 232.247,44.637 235.741,46.089 240.600 C 48.522 248.742,55.575 264.752,59.042 270.002 C 59.840 271.211,60.608 272.479,60.747 272.820 C 61.090 273.661,67.287 282.898,67.844 283.400 C 68.089 283.620,68.836 284.610,69.506 285.600 C 70.175 286.590,71.235 287.972,71.862 288.671 C 72.488 289.370,73.630 290.718,74.400 291.666 C 78.643 296.891,85.819 304.093,90.600 307.924 C 92.140 309.158,93.580 310.369,93.800 310.617 C 95.028 311.997,104.698 318.861,108.657 321.162 C 109.946 321.911,111.270 322.752,111.600 323.030 C 112.582 323.857,120.654 328.067,125.200 330.123 C 129.349 332.000,131.401 332.880,132.400 333.213 C 132.950 333.396,134.660 334.019,136.200 334.598 C 140.455 336.197,143.570 337.211,146.000 337.789 C 148.641 338.417,152.593 339.406,155.600 340.192 C 169.953 343.944,204.004 343.960,217.800 340.221 C 218.900 339.923,221.330 339.379,223.200 339.012 C 230.672 337.546,235.162 336.433,237.600 335.441 C 238.370 335.127,240.350 334.473,242.000 333.987 C 245.027 333.095,248.129 331.959,251.800 330.399 C 252.900 329.931,254.160 329.399,254.600 329.217 C 261.213 326.478,269.187 321.662,276.799 315.810 C 283.000 311.043,289.243 308.626,300.000 306.826 C 311.786 304.854,347.838 305.633,352.000 307.949 C 353.210 308.622,354.815 309.452,355.567 309.794 C 363.290 313.303,377.811 325.804,384.614 334.800 C 385.695 336.230,386.730 337.580,386.913 337.800 C 387.779 338.837,391.245 344.504,392.615 347.121 C 393.456 348.727,394.292 350.133,394.472 350.245 C 394.652 350.356,394.800 350.966,394.800 351.601 L 394.800 352.754 391.778 351.377 C 390.116 350.620,388.600 350.000,388.410 350.000 C 388.220 350.000,386.385 349.221,384.332 348.269 C 382.280 347.318,379.790 346.206,378.800 345.799 C 377.810 345.393,376.100 344.671,375.000 344.196 C 373.900 343.720,371.920 342.921,370.600 342.420 C 369.280 341.918,367.659 341.283,366.998 341.007 C 366.338 340.732,365.168 340.372,364.398 340.207 C 363.629 340.042,362.806 339.752,362.569 339.562 C 361.941 339.059,349.741 336.052,346.537 335.611 C 345.032 335.404,341.865 334.965,339.499 334.637 C 324.362 332.534,306.311 333.953,296.600 338.010 C 291.374 340.193,289.740 341.004,286.060 343.246 C 279.919 346.987,275.763 349.383,273.600 350.430 C 272.170 351.122,270.730 351.919,270.400 352.202 C 270.070 352.485,266.560 354.239,262.600 356.100 C 253.657 360.304,252.564 360.797,252.140 360.814 C 251.953 360.821,251.080 361.175,250.200 361.600 C 249.320 362.025,248.325 362.379,247.989 362.386 C 247.653 362.394,247.023 362.643,246.589 362.940 C 246.155 363.237,245.260 363.611,244.600 363.771 C 243.940 363.931,242.860 364.298,242.200 364.588 C 240.425 365.366,237.223 366.404,235.377 366.799 C 234.484 366.991,233.314 367.328,232.777 367.550 C 228.856 369.165,213.323 372.460,206.200 373.187 C 204.440 373.367,201.650 373.703,200.000 373.933 C 198.350 374.163,193.940 374.450,190.200 374.571 C 169.501 375.237,147.349 371.885,127.600 365.101 C 104.943 357.317,84.377 345.285,66.577 329.400 C 62.198 325.492,54.959 318.257,52.588 315.420 C 51.495 314.111,50.292 312.724,49.916 312.336 C 48.849 311.237,42.754 303.550,41.218 301.366 C 38.538 297.554,33.394 289.785,32.896 288.799 C 32.307 287.629,30.583 284.630,29.679 283.200 C 28.416 281.204,24.834 274.120,23.408 270.800 C 22.604 268.930,21.704 266.860,21.407 266.200 C 7.953 236.294,3.824 193.712,11.169 160.600 C 12.011 156.806,13.155 152.075,14.121 148.400 C 15.359 143.689,19.639 131.653,21.625 127.300 C 22.051 126.365,22.777 124.745,23.238 123.700 C 24.669 120.458,30.063 109.856,30.852 108.738 C 31.263 108.154,31.600 107.573,31.600 107.446 C 31.600 106.545,42.488 90.505,44.902 87.849 C 45.396 87.306,46.160 86.368,46.600 85.766 C 51.450 79.124,64.630 65.787,72.165 59.896 C 73.504 58.849,74.870 57.743,75.200 57.437 C 76.326 56.395,84.388 50.604,87.298 48.749 C 93.652 44.696,94.703 44.046,97.400 42.502 C 101.807 39.978,104.718 38.479,108.600 36.736 C 110.580 35.846,113.100 34.709,114.200 34.209 C 118.556 32.230,124.226 30.025,127.600 29.000 C 128.810 28.632,130.790 28.000,132.000 27.595 C 136.231 26.179,139.858 25.262,150.000 23.045 C 155.980 21.738,162.745 20.840,169.800 20.417 C 173.760 20.180,177.900 19.919,179.000 19.838 C 181.634 19.645,191.800 19.930,199.800 20.423 " stroke="none" fill="#579dd0" fill-rule="evenodd"></path><path id="path4" d="M181.863 17.470 C 181.682 17.652,178.083 17.916,173.867 18.058 C 169.650 18.200,164.940 18.516,163.400 18.761 C 161.860 19.005,159.520 19.374,158.200 19.580 C 151.390 20.644,145.347 21.830,141.400 22.878 C 138.980 23.521,136.190 24.223,135.200 24.439 C 134.210 24.655,133.047 25.030,132.617 25.272 C 132.186 25.513,130.926 25.939,129.817 26.218 C 128.707 26.497,126.540 27.202,125.000 27.785 C 123.460 28.367,121.570 29.033,120.800 29.264 C 120.030 29.495,118.950 29.931,118.400 30.234 C 117.850 30.536,115.780 31.433,113.800 32.228 C 109.042 34.138,103.532 36.825,98.521 39.678 C 96.278 40.955,94.341 42.000,94.217 42.000 C 94.093 42.000,93.139 42.598,92.096 43.328 C 91.053 44.059,89.300 45.170,88.200 45.797 C 87.100 46.424,85.449 47.537,84.531 48.270 C 83.613 49.003,82.503 49.737,82.065 49.901 C 81.626 50.066,80.667 50.686,79.934 51.281 C 79.200 51.875,76.620 53.911,74.200 55.806 C 69.801 59.251,66.020 62.476,63.072 65.300 C 62.211 66.125,61.441 66.800,61.363 66.800 C 61.118 66.800,54.304 73.756,52.314 76.038 C 51.276 77.227,49.623 79.073,48.640 80.141 C 47.656 81.208,46.345 82.828,45.726 83.741 C 45.107 84.653,44.398 85.580,44.152 85.800 C 43.905 86.020,42.866 87.280,41.843 88.600 C 40.820 89.920,39.743 91.270,39.451 91.600 C 39.159 91.930,38.406 93.100,37.779 94.200 C 37.152 95.300,36.533 96.290,36.404 96.400 C 35.899 96.831,31.121 104.163,30.067 106.124 C 29.454 107.266,28.499 108.920,27.944 109.800 C 26.659 111.839,21.526 122.310,20.395 125.199 C 19.921 126.408,19.402 127.578,19.242 127.799 C 18.944 128.210,17.245 132.626,16.011 136.200 C 15.632 137.300,15.093 138.830,14.815 139.600 C 14.537 140.370,14.074 141.841,13.785 142.869 C 13.497 143.897,13.088 145.067,12.877 145.469 C 12.666 145.871,12.362 147.010,12.201 148.000 C 12.041 148.990,11.748 150.000,11.551 150.245 C 11.354 150.490,11.000 151.750,10.765 153.045 C 10.529 154.340,10.080 156.210,9.766 157.200 C 9.452 158.190,9.022 160.080,8.809 161.400 C 5.915 179.367,5.978 178.720,5.744 192.800 C 5.444 210.766,6.589 223.883,9.464 235.400 C 9.793 236.720,10.320 239.043,10.634 240.563 C 10.949 242.082,11.362 243.522,11.553 243.763 C 11.743 244.003,12.029 245.100,12.187 246.200 C 12.345 247.300,12.619 248.380,12.795 248.600 C 12.971 248.820,13.385 249.990,13.715 251.200 C 14.044 252.410,14.795 254.660,15.382 256.200 C 15.969 257.740,16.597 259.574,16.777 260.275 C 16.957 260.976,17.503 262.416,17.991 263.475 C 19.722 267.235,19.976 267.831,21.027 270.600 C 21.612 272.140,22.234 273.580,22.409 273.800 C 22.584 274.020,23.674 276.090,24.831 278.400 C 25.987 280.710,27.055 282.690,27.205 282.800 C 27.354 282.910,27.762 283.540,28.111 284.200 C 28.459 284.860,29.029 285.940,29.375 286.600 C 29.722 287.260,30.409 288.465,30.903 289.277 C 31.396 290.089,32.418 291.799,33.173 293.077 C 33.928 294.355,34.783 295.544,35.073 295.720 C 35.363 295.896,35.600 296.202,35.600 296.400 C 35.600 297.298,44.314 308.930,48.195 313.213 C 49.298 314.430,51.010 316.401,52.000 317.594 C 54.116 320.142,61.970 328.008,64.344 329.954 C 65.252 330.699,66.501 331.779,67.121 332.354 C 70.256 335.265,72.268 336.960,73.566 337.784 C 74.355 338.284,75.450 339.127,76.000 339.657 C 76.550 340.186,77.810 341.155,78.800 341.810 C 79.790 342.464,80.780 343.193,81.000 343.428 C 81.370 343.824,82.794 344.832,84.353 345.803 C 84.709 346.024,86.260 347.034,87.800 348.046 C 89.340 349.058,91.140 350.186,91.800 350.553 C 92.460 350.920,93.720 351.661,94.600 352.199 C 95.480 352.737,97.280 353.743,98.600 354.436 C 102.324 356.389,103.323 356.952,104.389 357.703 C 104.933 358.087,105.766 358.400,106.240 358.400 C 106.714 358.400,107.317 358.658,107.579 358.974 C 107.841 359.290,108.570 359.662,109.200 359.800 C 109.830 359.938,110.559 360.310,110.821 360.626 C 111.083 360.942,111.501 361.206,111.749 361.214 C 111.997 361.221,112.920 361.575,113.800 362.000 C 114.680 362.425,115.560 362.779,115.756 362.786 C 115.952 362.794,116.852 363.138,117.756 363.552 C 122.787 365.854,137.908 370.828,139.820 370.811 C 140.491 370.805,141.223 370.983,141.446 371.206 C 141.669 371.429,143.330 371.871,145.137 372.189 C 146.944 372.507,148.586 372.868,148.785 372.991 C 150.413 373.997,168.083 375.980,181.200 376.628 C 190.599 377.093,217.677 374.465,220.831 372.783 C 221.178 372.597,222.438 372.321,223.631 372.169 C 224.824 372.016,226.286 371.646,226.880 371.346 C 227.474 371.046,228.328 370.800,228.779 370.800 C 229.229 370.800,230.633 370.464,231.898 370.052 C 233.164 369.641,236.630 368.545,239.600 367.617 C 242.570 366.689,245.740 365.585,246.644 365.164 C 247.548 364.744,248.448 364.394,248.644 364.386 C 248.840 364.379,249.720 364.025,250.600 363.600 C 251.480 363.175,252.353 362.821,252.540 362.814 C 252.917 362.798,254.275 362.209,259.000 360.009 C 260.760 359.189,262.650 358.313,263.200 358.062 C 263.750 357.811,264.470 357.447,264.800 357.252 C 265.130 357.057,266.750 356.231,268.400 355.416 C 272.397 353.442,276.327 351.336,277.800 350.378 C 278.460 349.949,279.540 349.327,280.200 348.994 C 281.180 348.501,286.695 345.214,289.200 343.630 C 292.616 341.471,299.630 338.826,304.800 337.749 C 312.674 336.109,313.836 336.001,323.600 336.009 C 333.047 336.016,336.060 336.244,346.600 337.748 C 351.405 338.433,358.713 340.260,362.400 341.696 C 362.950 341.911,364.210 342.320,365.200 342.606 C 368.468 343.549,370.207 344.242,375.726 346.800 C 376.676 347.240,377.651 347.600,377.894 347.600 C 378.137 347.600,378.845 347.868,379.468 348.195 C 381.347 349.182,386.811 351.620,390.000 352.893 C 391.650 353.552,393.180 354.226,393.400 354.390 C 396.791 356.928,398.433 354.121,396.181 349.637 C 395.641 348.563,395.200 347.485,395.200 347.242 C 395.200 346.999,395.059 346.800,394.888 346.800 C 394.716 346.800,394.349 346.305,394.073 345.700 C 393.209 343.809,389.498 337.821,388.805 337.200 C 388.682 337.090,388.276 336.550,387.902 336.000 C 385.163 331.969,383.207 329.690,378.335 324.852 C 374.646 321.188,370.170 317.194,368.600 316.165 C 367.720 315.588,366.640 314.794,366.200 314.401 C 364.277 312.682,358.327 308.963,354.046 306.805 L 349.400 304.462 342.200 304.200 C 332.613 303.850,308.215 303.833,304.200 304.173 C 298.984 304.615,287.205 307.321,285.800 308.400 C 285.580 308.569,284.827 308.830,284.128 308.980 C 283.428 309.129,282.641 309.510,282.379 309.826 C 282.117 310.142,281.712 310.400,281.480 310.400 C 280.925 310.400,275.676 313.907,274.401 315.130 C 273.852 315.657,272.474 316.705,271.339 317.458 C 270.203 318.212,269.056 319.092,268.788 319.414 C 268.521 319.736,268.173 320.000,268.015 320.000 C 267.857 320.000,266.214 320.913,264.364 322.029 C 261.146 323.970,259.634 324.736,254.500 327.026 C 253.235 327.590,251.660 328.295,251.000 328.592 C 248.813 329.578,242.076 332.067,240.727 332.388 C 239.997 332.561,237.275 333.355,234.677 334.152 C 232.079 334.948,229.610 335.600,229.191 335.600 C 228.771 335.600,227.621 335.874,226.635 336.209 C 224.626 336.891,220.466 337.724,214.800 338.580 C 212.710 338.896,210.420 339.331,209.712 339.546 C 209.004 339.761,206.124 340.055,203.312 340.199 C 200.500 340.343,197.125 340.643,195.811 340.864 C 192.640 341.399,178.881 341.410,175.600 340.879 C 174.170 340.648,170.930 340.335,168.400 340.184 C 165.870 340.033,163.499 339.750,163.131 339.557 C 162.762 339.363,160.872 338.943,158.931 338.622 C 153.631 337.748,145.020 335.573,140.600 333.992 C 139.280 333.520,137.390 332.898,136.400 332.610 C 135.410 332.321,133.183 331.436,131.450 330.642 C 129.718 329.849,128.130 329.200,127.922 329.200 C 127.286 329.200,115.135 323.019,112.914 321.565 C 111.766 320.814,109.876 319.620,108.714 318.910 C 103.985 316.024,96.741 310.892,95.800 309.760 C 95.580 309.496,93.802 308.010,91.849 306.458 C 85.901 301.730,78.341 294.023,74.822 289.100 C 74.075 288.055,73.339 287.200,73.187 287.200 C 73.034 287.200,72.395 286.435,71.767 285.500 C 71.138 284.565,69.944 282.965,69.112 281.944 C 68.281 280.924,67.600 279.961,67.600 279.805 C 67.600 279.649,66.593 278.093,65.362 276.346 C 64.131 274.600,62.578 272.142,61.910 270.885 C 61.242 269.628,60.584 268.510,60.448 268.400 C 60.128 268.142,59.203 266.526,58.501 265.000 C 58.198 264.340,57.792 263.530,57.599 263.200 C 56.583 261.462,53.600 255.101,53.600 254.674 C 53.600 254.401,53.364 253.823,53.075 253.389 C 52.786 252.955,51.968 251.070,51.256 249.200 C 50.545 247.330,49.813 245.440,49.629 245.000 C 49.049 243.615,47.284 237.861,46.989 236.400 C 46.834 235.630,46.569 234.820,46.399 234.600 C 46.229 234.380,45.959 233.210,45.800 232.000 C 45.641 230.790,45.265 229.202,44.964 228.471 C 44.663 227.739,44.299 225.939,44.156 224.471 C 44.013 223.002,43.649 221.193,43.348 220.451 C 43.047 219.709,42.800 217.970,42.800 216.586 C 42.800 215.203,42.530 212.660,42.200 210.935 C 41.355 206.518,41.355 187.752,42.200 183.335 C 42.530 181.611,42.800 179.097,42.800 177.749 C 42.800 176.401,43.050 174.691,43.356 173.949 C 43.662 173.207,44.042 171.250,44.200 169.600 C 44.359 167.950,44.639 166.413,44.823 166.185 C 45.007 165.956,45.355 164.535,45.596 163.027 C 45.837 161.518,46.205 159.964,46.415 159.573 C 46.624 159.182,46.994 157.934,47.237 156.800 C 47.481 155.666,47.931 154.257,48.237 153.669 C 48.544 153.081,48.796 152.329,48.798 151.997 C 48.800 151.473,49.589 149.166,51.841 143.095 C 52.148 142.267,52.569 141.277,52.775 140.895 C 52.981 140.513,53.625 139.120,54.205 137.800 C 55.550 134.738,59.957 125.939,60.437 125.358 C 60.637 125.115,61.265 124.035,61.830 122.958 C 62.801 121.110,64.741 118.038,65.214 117.600 C 65.332 117.490,66.001 116.500,66.700 115.400 C 67.399 114.300,68.218 113.130,68.521 112.800 C 68.823 112.470,69.505 111.570,70.035 110.800 C 71.345 108.899,73.961 105.619,75.139 104.400 C 75.671 103.850,76.508 102.770,76.999 102.000 C 78.167 100.168,88.100 90.110,90.348 88.483 C 92.032 87.263,95.757 84.152,97.270 82.700 C 97.672 82.315,98.146 82.000,98.325 82.000 C 98.503 82.000,98.998 81.685,99.425 81.300 C 99.851 80.915,101.010 80.065,102.000 79.411 C 103.565 78.377,105.140 77.233,106.618 76.055 C 106.848 75.871,107.208 75.649,107.418 75.561 C 107.628 75.472,109.240 74.538,111.000 73.484 C 112.760 72.430,114.470 71.424,114.800 71.249 C 116.419 70.387,118.013 69.569,120.200 68.479 C 122.382 67.391,123.869 66.694,130.275 63.753 C 131.417 63.229,132.587 62.799,132.875 62.798 C 133.164 62.796,133.855 62.558,134.411 62.267 C 134.967 61.977,136.315 61.515,137.406 61.240 C 138.497 60.966,139.572 60.598,139.795 60.423 C 140.018 60.248,141.146 59.883,142.301 59.612 C 143.457 59.341,144.503 58.958,144.625 58.760 C 144.747 58.562,145.247 58.400,145.736 58.400 C 146.226 58.400,147.610 58.128,148.813 57.795 C 150.016 57.462,152.170 57.003,153.600 56.776 C 155.030 56.549,156.830 56.114,157.600 55.810 C 158.370 55.505,160.379 55.147,162.064 55.014 C 163.750 54.882,166.360 54.512,167.864 54.193 C 171.134 53.501,195.448 53.377,198.400 54.038 C 199.390 54.260,202.180 54.667,204.600 54.944 C 207.020 55.221,209.374 55.651,209.831 55.901 C 210.288 56.150,211.638 56.469,212.831 56.610 C 214.024 56.751,215.637 57.104,216.415 57.396 C 217.193 57.687,218.723 58.055,219.815 58.213 C 220.907 58.371,221.980 58.641,222.200 58.811 C 222.420 58.982,223.410 59.330,224.400 59.585 C 225.390 59.839,227.730 60.653,229.600 61.392 C 231.470 62.131,233.450 62.861,234.000 63.015 C 234.550 63.168,236.821 64.167,239.047 65.236 C 241.272 66.305,243.522 67.373,244.047 67.610 C 244.571 67.847,245.720 68.479,246.600 69.015 C 247.480 69.550,248.920 70.352,249.800 70.796 C 250.680 71.241,251.867 71.918,252.438 72.302 C 254.057 73.392,256.846 75.235,258.587 76.368 C 259.459 76.936,260.479 77.670,260.853 78.000 C 261.226 78.330,262.718 79.498,264.166 80.595 C 265.615 81.692,266.800 82.727,266.800 82.895 C 266.800 83.063,267.025 83.201,267.300 83.203 C 267.575 83.205,268.902 84.240,270.249 85.503 C 271.596 86.766,273.306 88.357,274.049 89.037 C 276.323 91.119,280.901 96.051,282.800 98.466 C 283.790 99.724,285.803 102.282,287.274 104.149 C 291.359 109.337,296.555 117.463,300.200 124.363 C 301.681 127.167,304.000 132.203,304.000 132.615 C 304.000 132.783,304.439 133.838,304.975 134.960 C 307.447 140.131,310.157 148.011,311.797 154.800 C 312.142 156.230,312.614 158.120,312.845 159.000 C 313.076 159.880,313.520 161.950,313.833 163.600 C 314.145 165.250,314.581 167.122,314.800 167.760 C 315.020 168.398,315.201 169.568,315.203 170.360 C 315.204 171.152,315.584 173.870,316.047 176.400 C 316.862 180.852,316.895 182.447,317.091 226.080 C 317.290 270.434,317.306 271.172,318.089 271.880 C 319.308 272.984,348.782 272.989,349.886 271.886 C 351.316 270.456,351.043 184.976,349.581 176.200 C 349.361 174.880,349.013 171.668,348.808 169.062 C 348.603 166.457,348.238 164.087,347.997 163.796 C 347.756 163.506,347.387 161.615,347.178 159.594 C 346.969 157.574,346.677 155.725,346.529 155.485 C 346.380 155.245,346.043 153.777,345.779 152.224 C 345.514 150.671,344.813 147.600,344.221 145.400 C 343.628 143.200,342.901 140.500,342.604 139.400 C 342.041 137.312,341.593 135.944,340.378 132.600 C 339.978 131.500,339.474 129.970,339.257 129.200 C 339.041 128.430,338.470 126.810,337.990 125.600 C 337.509 124.390,336.880 122.770,336.591 122.000 C 336.302 121.230,335.782 120.060,335.435 119.400 C 335.088 118.740,334.804 117.966,334.802 117.679 C 334.801 117.393,334.452 116.493,334.026 115.679 C 333.601 114.866,332.060 111.770,330.601 108.800 C 329.143 105.830,327.517 102.680,326.989 101.800 C 326.045 100.228,325.430 99.114,324.047 96.471 C 323.665 95.739,323.179 95.019,322.968 94.871 C 322.757 94.722,322.355 94.150,322.076 93.600 C 321.036 91.552,319.410 89.076,317.714 86.959 C 316.992 86.056,316.400 85.145,316.400 84.934 C 316.400 84.723,316.085 84.202,315.700 83.775 C 315.315 83.349,313.982 81.650,312.737 80.000 C 311.493 78.350,310.042 76.549,309.512 75.998 C 308.983 75.447,308.380 74.693,308.172 74.321 C 306.884 72.020,293.115 58.144,288.800 54.799 C 287.810 54.032,286.332 52.824,285.515 52.116 C 284.698 51.408,283.348 50.389,282.515 49.852 C 281.682 49.314,280.404 48.318,279.675 47.637 C 278.947 46.957,278.163 46.400,277.933 46.400 C 277.703 46.400,276.610 45.680,275.505 44.800 C 274.400 43.920,273.249 43.200,272.948 43.200 C 272.646 43.200,272.400 43.011,272.400 42.781 C 272.400 42.550,271.905 42.143,271.300 41.876 C 270.695 41.609,269.390 40.855,268.400 40.200 C 264.212 37.428,249.259 30.013,246.558 29.368 C 245.921 29.216,244.950 28.848,244.400 28.551 C 243.277 27.944,240.601 26.955,238.200 26.259 C 237.320 26.003,236.360 25.641,236.068 25.454 C 235.775 25.266,234.605 24.870,233.468 24.574 C 232.330 24.278,230.050 23.666,228.400 23.214 C 224.439 22.128,216.897 20.520,213.400 20.015 C 211.860 19.793,208.800 19.325,206.600 18.975 C 204.400 18.626,199.180 18.171,195.000 17.964 C 190.820 17.758,186.228 17.488,184.797 17.365 C 183.365 17.241,182.045 17.289,181.863 17.470 M203.000 19.798 C 204.980 20.099,207.804 20.452,209.276 20.581 C 211.625 20.788,215.429 21.504,224.200 23.388 C 270.223 33.272,313.453 70.328,332.982 116.634 C 333.994 119.035,334.990 121.360,335.194 121.800 C 338.725 129.423,343.849 147.120,346.023 159.200 C 349.088 176.227,349.590 186.635,349.595 233.277 L 349.600 270.355 348.711 270.977 C 347.947 271.512,345.837 271.600,333.734 271.600 L 319.645 271.600 319.023 270.711 C 318.470 269.921,318.397 265.333,318.377 229.611 C 318.354 190.164,318.255 186.111,317.044 175.200 C 312.522 134.473,288.802 94.552,256.800 73.812 C 253.876 71.918,243.705 66.000,243.372 66.000 C 243.280 66.000,241.539 65.208,239.502 64.240 C 231.978 60.662,223.563 57.779,215.000 55.846 C 210.956 54.933,209.107 54.601,199.800 53.123 C 194.620 52.299,171.362 52.460,165.800 53.357 C 163.380 53.747,160.410 54.216,159.200 54.399 C 152.340 55.437,142.032 58.224,133.600 61.322 C 130.023 62.636,128.747 63.184,121.800 66.389 C 118.469 67.926,110.852 72.082,108.600 73.592 C 107.720 74.182,105.406 75.730,103.458 77.032 C 101.509 78.335,98.028 80.930,95.722 82.800 C 93.415 84.670,90.971 86.609,90.291 87.110 C 85.296 90.781,73.442 103.827,67.918 111.734 C 66.662 113.530,65.300 115.450,64.891 116.000 C 64.481 116.550,63.456 118.170,62.614 119.600 C 61.771 121.030,60.506 123.100,59.803 124.200 C 58.143 126.799,52.379 138.599,51.011 142.200 C 50.425 143.740,49.691 145.630,49.379 146.400 C 46.300 153.990,42.386 170.209,41.570 178.761 C 41.351 181.049,41.070 183.087,40.945 183.290 C 40.503 184.005,40.390 205.407,40.810 209.000 C 41.041 210.980,41.392 214.130,41.591 216.000 C 43.701 235.887,53.257 261.171,64.979 277.880 C 66.091 279.464,67.313 281.264,67.695 281.880 C 68.298 282.851,69.757 284.767,71.835 287.316 C 72.156 287.709,73.540 289.418,74.910 291.112 C 80.141 297.582,91.639 308.385,98.155 312.953 C 99.060 313.587,99.890 314.229,100.000 314.381 C 100.374 314.895,105.384 318.233,110.600 321.442 C 141.807 340.640,181.682 347.069,219.400 338.984 C 220.940 338.654,223.914 338.025,226.009 337.587 C 231.857 336.363,242.653 333.185,247.400 331.290 C 259.680 326.388,266.358 322.759,273.996 316.834 C 277.999 313.730,279.910 312.400,280.369 312.400 C 280.552 312.400,280.905 312.155,281.153 311.856 C 281.832 311.038,288.475 308.538,293.000 307.398 C 301.719 305.201,308.175 304.700,324.770 304.932 C 349.672 305.279,351.439 305.594,359.296 311.077 C 360.339 311.805,361.298 312.400,361.427 312.400 C 362.004 312.400,370.965 319.453,374.461 322.659 C 383.164 330.640,390.232 339.932,394.937 349.579 C 397.214 354.246,396.423 354.384,388.104 350.770 C 384.417 349.168,379.755 347.184,377.744 346.362 C 375.734 345.539,373.543 344.584,372.875 344.239 C 371.307 343.428,360.788 339.837,356.400 338.615 C 353.348 337.765,345.941 336.462,337.000 335.201 C 332.137 334.516,314.812 334.480,311.400 335.148 C 298.773 337.622,293.416 339.638,283.600 345.610 C 281.070 347.150,278.100 348.951,277.000 349.613 C 263.134 357.958,238.359 367.772,222.600 371.162 C 220.400 371.635,217.430 372.277,216.000 372.589 C 203.711 375.267,172.322 376.254,163.400 374.242 C 162.960 374.143,160.980 373.850,159.000 373.591 C 157.020 373.332,154.230 372.878,152.800 372.581 C 151.370 372.284,148.760 371.741,147.000 371.374 C 136.961 369.282,117.421 362.916,112.044 359.986 C 111.690 359.793,108.880 358.390,105.800 356.868 C 88.232 348.186,68.282 333.720,56.800 321.335 C 52.936 317.167,45.715 308.694,43.522 305.755 C 38.573 299.122,34.679 293.495,32.950 290.482 C 32.483 289.667,30.909 286.930,29.454 284.400 C 22.491 272.298,15.010 253.945,12.335 242.400 C 11.902 240.530,11.282 237.920,10.958 236.600 C 2.953 203.998,6.235 162.003,19.210 131.000 C 20.131 128.800,21.233 126.123,21.659 125.051 C 22.806 122.166,27.615 112.658,30.103 108.357 C 32.807 103.681,34.888 100.262,35.189 100.000 C 35.316 99.890,36.630 98.000,38.110 95.800 C 39.590 93.600,41.385 91.053,42.100 90.139 C 42.815 89.225,44.417 87.144,45.661 85.513 C 51.664 77.640,65.442 63.899,73.400 57.847 C 74.720 56.844,76.700 55.297,77.800 54.410 C 79.574 52.981,87.813 47.367,91.600 45.008 C 92.370 44.528,93.761 43.655,94.691 43.068 C 95.622 42.481,96.478 42.000,96.595 42.000 C 96.712 42.000,98.522 41.010,100.618 39.800 C 102.714 38.590,104.492 37.600,104.569 37.600 C 104.646 37.600,106.485 36.764,108.655 35.743 C 115.728 32.414,122.223 29.870,130.600 27.146 C 139.618 24.215,153.349 21.163,160.972 20.397 C 163.377 20.156,165.537 19.839,165.772 19.693 C 167.278 18.762,196.726 18.845,203.000 19.798 " stroke="none" fill="#b3d4ea" fill-rule="evenodd"></path></g></svg>